<?xml version="1.0" encoding="UTF-8"?>
<svg version="1.1" xmlns="http://www.w3.org/2000/svg" width="156" height="165">
<path d="M0 0 C3.40011102 1.38998249 4.49355744 2.61418967 6.1875 5.8125 C9.83407098 10.96223764 14.59623784 11.71035999 20.40161133 13.21508789 C38.37436539 17.88270818 52.75001994 29.65613689 62.1875 45.5625 C72.11063511 63.03605543 74.7886694 83.59424996 69.59082031 103.04394531 C65.79628026 115.60669526 59.47660806 126.83857846 50 136 C50.89203125 135.96519531 51.7840625 135.93039063 52.703125 135.89453125 C53.87359375 135.86746094 55.0440625 135.84039062 56.25 135.8125 C57.41015625 135.77769531 58.5703125 135.74289063 59.765625 135.70703125 C63.22268407 136.02017066 64.51565563 136.65709108 67 139 C66.125 142.875 66.125 142.875 65 144 C63.38967466 144.10903405 61.77461178 144.14905598 60.16064453 144.16113281 C59.12932404 144.17074036 58.09800354 144.1803479 57.03543091 144.19024658 C55.91256683 144.19449646 54.78970276 144.19874634 53.6328125 144.203125 C52.48714813 144.20882507 51.34148376 144.21452515 50.16110229 144.22039795 C47.73159718 144.22986503 45.30207911 144.23638868 42.87255859 144.24023438 C39.14788495 144.24994036 35.42376273 144.2809486 31.69921875 144.3125 C29.34375329 144.31902955 26.98828387 144.32428021 24.6328125 144.328125 C23.51399689 144.3404718 22.39518127 144.3528186 21.24246216 144.36553955 C20.20483734 144.36253845 19.16721252 144.35953735 18.09814453 144.35644531 C17.18404816 144.36009094 16.26995178 144.36373657 15.32815552 144.36749268 C12.58125397 143.93390214 11.70865059 143.13728085 10 141 C10 141.99 10 142.98 10 144 C-14.09 144 -38.18 144 -63 144 C-63.99 141.525 -63.99 141.525 -65 139 C-62.15385976 136.15385976 -59.19630858 136.54420924 -55.375 136.375 C-54.66859375 136.33632812 -53.9621875 136.29765625 -53.234375 136.2578125 C-51.49001476 136.16352276 -49.74504309 136.08067109 -48 136 C-48.4846875 135.51273438 -48.969375 135.02546875 -49.46875 134.5234375 C-63.47670666 119.7073295 -70.6792987 100.84689506 -70.2421875 80.47265625 C-68.79447794 59.71436921 -60.83207213 42.12479953 -45.75 27.6875 C-35.70429388 19.33370228 -22.80203413 12.70760397 -9.80078125 10.65234375 C-7.071056 9.66348449 -5.99905855 7.81215836 -4.3125 5.5 C-3.40951172 4.27796875 -3.40951172 4.27796875 -2.48828125 3.03125 C-1.99714844 2.3609375 -1.50601563 1.690625 -1 1 C-0.67 0.67 -0.34 0.34 0 0 Z " fill="#061625" transform="translate(77,2)"/>
<path d="M0 0 C3.40011102 1.38998249 4.49355744 2.61418967 6.1875 5.8125 C9.83039606 10.95704787 14.58896189 11.71520012 20.39282227 13.20849609 C29.51334745 15.5636398 39.95223886 19.34212064 46 27 C46.9375 30.375 46.9375 30.375 47 33 C46.34 33 45.68 33 45 33 C44.67 35.31 44.34 37.62 44 40 C43.34 39.67 42.68 39.34 42 39 C41.78085938 39.97582031 41.56171875 40.95164063 41.3359375 41.95703125 C41.01882812 43.22933594 40.70171875 44.50164063 40.375 45.8125 C40.07335937 47.07707031 39.77171875 48.34164062 39.4609375 49.64453125 C38 53 38 53 34.9765625 54.94921875 C32 56 32 56 30 56 C29.505 54.02 29.505 54.02 29 52 C28.00419922 53.01320313 28.00419922 53.01320313 26.98828125 54.046875 C26.10527344 54.93890625 25.22226563 55.8309375 24.3125 56.75 C23.44238281 57.63171875 22.57226562 58.5134375 21.67578125 59.421875 C19 62 19 62 16.26953125 64.1640625 C11.51706191 68.00857298 10.38103462 73.79837118 8.76171875 79.453125 C7.68734786 83.0453805 6.35863181 86.50637535 5 90 C4.67 90 4.34 90 4 90 C3.505 85.545 3.505 85.545 3 81 C1.68 81 0.36 81 -1 81 C-1.33 83.64 -1.66 86.28 -2 89 C-5.05906926 86.48933531 -5.75191278 84.09940067 -6.6875 80.3125 C-6.93886719 79.31863281 -7.19023438 78.32476562 -7.44921875 77.30078125 C-7.63097656 76.54152344 -7.81273437 75.78226562 -8 75 C-8.33 75 -8.66 75 -9 75 C-9.495 76.485 -9.495 76.485 -10 78 C-10.99 77.505 -10.99 77.505 -12 77 C-11.94779297 77.94359375 -11.94779297 77.94359375 -11.89453125 78.90625 C-11.69993216 85.05928781 -12.50004257 89.37509578 -15 95 C-20.99810094 93.36415429 -25.03345389 89.3780048 -28.11230469 84.08935547 C-29.70589955 81.13068377 -31.24678205 78.15319106 -32.71582031 75.13061523 C-36.10536974 68.27826634 -39.87238442 64.14941153 -47 61 C-46.48050781 61.40089844 -45.96101563 61.80179688 -45.42578125 62.21484375 C-40.19605389 66.47789322 -36.64659261 70.75251457 -34 77 C-34 77.66 -34 78.32 -34 79 C-34.66 79 -35.32 79 -36 79 C-36 79.99 -36 80.98 -36 82 C-34.02 81.505 -34.02 81.505 -32 81 C-31.75765625 81.51949219 -31.5153125 82.03898437 -31.265625 82.57421875 C-29.22863922 86.81271608 -27.12171172 90.43232946 -24 94 C-34.08084768 92.80186646 -40.34770606 88.68626017 -46.6875 80.84765625 C-52.36140689 72.86028137 -54.34575161 64.68104508 -54 55 C-51.525 54.505 -51.525 54.505 -49 54 C-50.65 53.67 -52.3 53.34 -54 53 C-54 52.34 -54 51.68 -54 51 C-55.65 51 -57.3 51 -59 51 C-59.33 51.66 -59.66 52.32 -60 53 C-60.99 53 -61.98 53 -63 53 C-59.81950605 39.57124779 -47.43840358 28.22846131 -36.2890625 21.00390625 C-29.30505383 16.74880358 -22.69801465 14.13838785 -14.75 12.25 C-7.64718507 10.37098968 -4.65997434 7.20057509 -1 1 C-0.67 0.67 -0.34 0.34 0 0 Z " fill="#091827" transform="translate(77,2)"/>
<path d="M0 0 C-0.27150712 12.31655023 -3.75661093 22.96093384 -12.45703125 31.89453125 C-16.50129916 35.24301113 -20.90305626 37.6755973 -26 39 C-28.32421875 38.61328125 -28.32421875 38.61328125 -30 38 C-28.8553125 36.700625 -28.8553125 36.700625 -27.6875 35.375 C-25.24779927 32.46399345 -23.57001723 29.47056439 -22 26 C-21.01 26 -20.02 26 -19 26 C-18.67 25.34 -18.34 24.68 -18 24 C-18.66 24 -19.32 24 -20 24 C-19.51675181 18.84535266 -16.81389239 15.18449681 -14 11 C-14.99 11 -15.98 11 -17 11 C-18.2783225 13.49883142 -19.46432649 16.01884589 -20.62890625 18.57421875 C-25.84109243 29.79417833 -31.53406101 37.10199476 -42 44 C-46.20300625 48.20300625 -47.64328242 51.05470692 -48 57 C-46.02 57.495 -46.02 57.495 -44 58 C-44.495 58.99 -44.495 58.99 -45 60 C-44.34 60 -43.68 60 -43 60 C-42.505 59.01 -42.505 59.01 -42 58 C-40.484375 59.1796875 -40.484375 59.1796875 -39 61 C-38.890625 63.4453125 -38.890625 63.4453125 -39.25 66.125 C-39.35828125 67.01445313 -39.4665625 67.90390625 -39.578125 68.8203125 C-40 71 -40 71 -41 72 C-41.23192865 73.51469448 -41.41215238 75.03754562 -41.5625 76.5625 C-41.64628906 77.38878906 -41.73007813 78.21507812 -41.81640625 79.06640625 C-41.87699219 79.70449219 -41.93757813 80.34257812 -42 81 C-41.34 81 -40.68 81 -40 81 C-39.67 79.35 -39.34 77.7 -39 76 C-38.67 76 -38.34 76 -38 76 C-37.67 67.09 -37.34 58.18 -37 49 C-32.71 48.67 -28.42 48.34 -24 48 C-24 49.65 -24 51.3 -24 53 C-23.443125 51.6696875 -23.443125 51.6696875 -22.875 50.3125 C-20.35699364 45.86402209 -17.67565358 42.94062139 -12.85546875 41.24609375 C-8.01465302 40.06681496 -4.13818293 40 1 40 C1 45.61 1 51.22 1 57 C1.99 57 2.98 57 4 57 C4 60.86695678 2.58090029 63.5088452 1 67 C1.66 67 2.32 67 3 67 C2.50128936 71.45673159 0.97995638 73.57687178 -2.0625 76.8125 C-2.79597656 77.60269531 -3.52945313 78.39289063 -4.28515625 79.20703125 C-4.85105469 79.79871094 -5.41695313 80.39039063 -6 81 C-5.10796875 80.96519531 -4.2159375 80.93039063 -3.296875 80.89453125 C-2.12640625 80.86746094 -0.9559375 80.84039062 0.25 80.8125 C1.99023438 80.76029297 1.99023438 80.76029297 3.765625 80.70703125 C7.22268407 81.02017066 8.51565563 81.65709108 11 84 C10.125 87.875 10.125 87.875 9 89 C7.38967466 89.10903405 5.77461178 89.14905598 4.16064453 89.16113281 C2.61366379 89.17554413 2.61366379 89.17554413 1.03543091 89.19024658 C-0.08743317 89.19449646 -1.21029724 89.19874634 -2.3671875 89.203125 C-3.51285187 89.20882507 -4.65851624 89.21452515 -5.83889771 89.22039795 C-8.26840282 89.22986503 -10.69792089 89.23638868 -13.12744141 89.24023438 C-16.85211505 89.24994036 -20.57623727 89.2809486 -24.30078125 89.3125 C-26.65624671 89.31902955 -29.01171613 89.32428021 -31.3671875 89.328125 C-32.48600311 89.3404718 -33.60481873 89.3528186 -34.75753784 89.36553955 C-35.79516266 89.36253845 -36.83278748 89.35953735 -37.90185547 89.35644531 C-38.81595184 89.36009094 -39.73004822 89.36373657 -40.67184448 89.36749268 C-43.41874603 88.93390214 -44.29134941 88.13728085 -46 86 C-46 86.99 -46 87.98 -46 89 C-70.09 89 -94.18 89 -119 89 C-119 88.67 -119 88.34 -119 88 C-96.725 87.505 -96.725 87.505 -74 87 C-73.67 85.35 -73.34 83.7 -73 82 C-72.01 81.67 -71.02 81.34 -70 81 C-69.029362 78.08808601 -68.82187438 76.00564158 -68.71875 72.96484375 C-68.66267578 71.50401367 -68.66267578 71.50401367 -68.60546875 70.01367188 C-68.53502248 67.95898896 -68.46471049 65.90430143 -68.39453125 63.84960938 C-68.35714844 62.87701172 -68.31976563 61.90441406 -68.28125 60.90234375 C-68.25095703 60.01023193 -68.22066406 59.11812012 -68.18945312 58.19897461 C-68 56 -68 56 -67 54 C-66.030625 53.87625 -65.06125 53.7525 -64.0625 53.625 C-60.88417172 53.3508355 -60.88417172 53.3508355 -59.625 50.9375 C-59.41875 50.298125 -59.2125 49.65875 -59 49 C-57.68 49 -56.36 49 -55 49 C-54.505 51.97 -54.505 51.97 -54 55 C-53.67 55 -53.34 55 -53 55 C-52.62875 53.205625 -52.62875 53.205625 -52.25 51.375 C-50.9388595 46.18545088 -48.8899416 42.27865485 -44.3671875 39.21875 C-41.70163612 37.19812013 -41.70163612 37.19812013 -41.65234375 34.046875 C-41.74644531 32.95890625 -41.84054688 31.8709375 -41.9375 30.75 C-42.22256531 22.78598784 -40.29590914 18.36768188 -35.125 12.4375 C-25.70584284 3.56762414 -12.68331839 -0.5284716 0 0 Z " fill="#061525" transform="translate(133,57)"/>
<path d="M0 0 C14.49099684 11.09948694 22.57398094 27.62004853 25.56640625 45.3515625 C27.6408971 62.80718819 24.11197347 78.58725041 16 94 C14.28125 95.953125 14.28125 95.953125 13 97 C13 96.34 13 95.68 13 95 C12.34 95 11.68 95 11 95 C11.52268466 92.23723823 12.10869587 89.6739124 13 87 C12.01 86.67 11.02 86.34 10 86 C10.33 80.06 10.66 74.12 11 68 C7.225625 68.5878125 7.225625 68.5878125 3.375 69.1875 C2.20396729 69.35415161 2.20396729 69.35415161 1.00927734 69.52416992 C-4.32210364 70.44251011 -7.20753375 72.11503458 -11 76 C-12.08848535 77.92087042 -12.08848535 77.92087042 -12.375 79.8125 C-12.58125 80.864375 -12.7875 81.91625 -13 83 C-14.0625 81.1875 -14.0625 81.1875 -15 79 C-14.505 77.515 -14.505 77.515 -14 76 C-15.485 76.495 -15.485 76.495 -17 77 C-20.3 77 -23.6 77 -27 77 C-27 87.56 -27 98.12 -27 109 C-27.66 107.68 -28.32 106.36 -29 105 C-29.33 106.32 -29.66 107.64 -30 109 C-30.66 109 -31.32 109 -32 109 C-32.02689216 107.52093108 -32.04634621 106.04172517 -32.0625 104.5625 C-32.07410156 103.73878906 -32.08570312 102.91507812 -32.09765625 102.06640625 C-32 100 -32 100 -31 99 C-30.76712992 97.31816052 -30.58735834 95.6287584 -30.4375 93.9375 C-30.35371094 93.01839844 -30.26992187 92.09929687 -30.18359375 91.15234375 C-30.12300781 90.44207031 -30.06242187 89.73179688 -30 89 C-31.2236068 88.9254644 -31.2236068 88.9254644 -33 90 C-35.3400417 89.71758117 -37.67504723 89.38749213 -40 89 C-40 88.67 -40 88.34 -40 88 C-38.35 88 -36.7 88 -35 88 C-35 87.34 -35 86.68 -35 86 C-36.98 86 -38.96 86 -41 86 C-39.515 85.505 -39.515 85.505 -38 85 C-38.144375 84.01 -38.28875 83.02 -38.4375 82 C-38.42825174 77.42211375 -36.11286834 75.10657381 -33.06640625 71.90625 C-31.10141771 70.09355735 -29.10095616 68.50485937 -26.9375 66.9375 C-19.64742395 61.64834693 -15.84281084 55.28860521 -11.890625 47.33032227 C-10.01353578 43.61000392 -8.13953446 40.75581358 -5 38 C-4.01 38.495 -4.01 38.495 -3 39 C-3.42152344 39.68707031 -3.84304687 40.37414062 -4.27734375 41.08203125 C-4.82519531 41.98308594 -5.37304688 42.88414063 -5.9375 43.8125 C-6.48277344 44.70582031 -7.02804688 45.59914062 -7.58984375 46.51953125 C-9.11009578 49.00703562 -9.11009578 49.00703562 -10 52 C-9.34 52 -8.68 52 -8 52 C-8.33 52.99 -8.66 53.98 -9 55 C-10.485 54.505 -10.485 54.505 -12 54 C-12.226875 54.86625 -12.45375 55.7325 -12.6875 56.625 C-14.24025095 60.61778814 -16.14319895 62.84248305 -19 66 C-10.80061441 64.61398286 -3.75522352 60.96806884 1.46875 54.42578125 C6.52202567 46.42046444 8.75276416 37.28911468 10 28 C-3.50648616 29.63194427 -16.18304318 32.69267632 -25.875 42.875 C-26.57625 43.57625 -27.2775 44.2775 -28 45 C-28.99 45 -29.98 45 -31 45 C-31.33 45.66 -31.66 46.32 -32 47 C-32.99 47 -33.98 47 -35 47 C-35.495 45.515 -35.495 45.515 -36 44 C-31.88469501 35.76939001 -23.27754039 29.31562282 -16 24 C-16 25.65 -16 27.3 -16 29 C-15.05125 28.505 -14.1025 28.01 -13.125 27.5 C-10 26 -10 26 -8 26 C-7.01 21.05 -6.02 16.1 -5 11 C-4.01 11 -3.02 11 -2 11 C-1.67 9.35 -1.34 7.7 -1 6 C-0.34 6 0.32 6 1 6 C0.505 3.03 0.505 3.03 0 0 Z M-36 47 C-36 50 -36 50 -36 50 Z " fill="#0B1A29" transform="translate(123,29)"/>
<path d="M0 0 C3.25 0.1875 3.25 0.1875 7 1 C7.57234375 1.79148437 8.1446875 2.58296875 8.734375 3.3984375 C11.6976595 6.80110556 14.77450736 7.43358413 19 8.4375 C28.89153956 11.07461021 40.39108045 14.6315629 47 23 C47.9375 26.375 47.9375 26.375 48 29 C47.34 29 46.68 29 46 29 C45.67 31.31 45.34 33.62 45 36 C44.01 35.505 44.01 35.505 43 35 C42.78085938 35.97582031 42.56171875 36.95164063 42.3359375 37.95703125 C42.01882812 39.22933594 41.70171875 40.50164063 41.375 41.8125 C41.07335937 43.07707031 40.77171875 44.34164062 40.4609375 45.64453125 C39 49 39 49 35.9765625 50.94921875 C33 52 33 52 31 52 C30.505 50.02 30.505 50.02 30 48 C29.3709375 48.64066406 28.741875 49.28132813 28.09375 49.94140625 C22.90088759 55.18901269 17.63130748 60.22790232 12 65 C10.66645088 66.14558219 9.33310633 67.29140257 8 68.4375 C6.515 69.7059375 6.515 69.7059375 5 71 C3.88287609 67.33417857 3.83791845 64.66825743 5 61 C8.70423364 56.50547725 13.50166783 53.00186231 18.09863281 49.47021484 C20.794817 47.385415 23.39399216 45.19602841 26 43 C25.34 42.34 24.68 41.68 24 41 C23.875 38.375 23.875 38.375 24 36 C25.32 35.34 26.64 34.68 28 34 C26.68 34 25.36 34 24 34 C24 31.69 24 29.38 24 27 C23.34 27 22.68 27 22 27 C21.96132812 28.051875 21.96132812 28.051875 21.921875 29.125 C21.44827953 37.0469606 20.26670033 43.03027243 14.25 48.5 C13.5075 48.995 12.765 49.49 12 50 C11.34 49.67 10.68 49.34 10 49 C10.433125 47.9790625 10.433125 47.9790625 10.875 46.9375 C12.10325736 43.90698304 12.10325736 43.90698304 12.9375 40.25 C13.288125 39.1775 13.63875 38.105 14 37 C14.99 36.67 15.98 36.34 17 36 C17 35.34 17 34.68 17 34 C15.02 34.66 13.04 35.32 11 36 C10.90525391 36.97839844 10.90525391 36.97839844 10.80859375 37.9765625 C9.94655162 44.12882106 8.61372002 47.23693507 3.65625 51.0390625 C2 52 2 52 0 52 C0 51.34 0 50.68 0 50 C-0.66 50 -1.32 50 -2 50 C-5.81109992 45.38048494 -6.59080462 41.93333307 -7 36 C-8.98 35.34 -10.96 34.68 -13 34 C-13 34.66 -13 35.32 -13 36 C-12.36449219 36.226875 -11.72898437 36.45375 -11.07421875 36.6875 C-9 38 -9 38 -8.20703125 40.3125 C-8.07683594 41.199375 -7.94664063 42.08625 -7.8125 43 C-7.29238701 46.622388 -7.29238701 46.622388 -6 50 C-9.89886044 48.41157538 -12.3491755 46.26255323 -15 43 C-17.19573017 37.78078425 -18.44929412 32.69105887 -18 27 C-17.32453125 27.2165625 -16.6490625 27.433125 -15.953125 27.65625 C-15.06109375 27.9346875 -14.1690625 28.213125 -13.25 28.5 C-12.36828125 28.7784375 -11.4865625 29.056875 -10.578125 29.34375 C-7.79732471 30.16445285 -7.79732471 30.16445285 -4 30 C-4.66 29.01 -5.32 28.02 -6 27 C-4.68 26.67 -3.36 26.34 -2 26 C-1.30840599 24.15274948 -1.30840599 24.15274948 -1 22 C-1.66 21.01 -2.32 20.02 -3 19 C-3.74168927 14.47224572 -3.63147475 10.36555744 -1.125 6.4375 C-0.42375 5.633125 0.2775 4.82875 1 4 C1.66 4 2.32 4 3 4 C3 3.01 3 2.02 3 1 C2.01 0.67 1.02 0.34 0 0 Z " fill="#081727" transform="translate(76,6)"/>
<path d="M0 0 C15.24993578 0.46493707 15.24993578 0.46493707 21 5 C22.66255188 6.93727555 23.76720207 8.73987046 25 11 C25.33 10.34 25.66 9.68 26 9 C26.66 9 27.32 9 28 9 C28.33 7.68 28.66 6.36 29 5 C31.97 5 34.94 5 38 5 C38 17.54 38 30.08 38 43 C35.36 43 32.72 43 30 43 C30.495 44.98 30.495 44.98 31 47 C18.13 47.33 5.26 47.66 -8 48 C-8.33 46.68 -8.66 45.36 -9 44 C-6.15385976 41.15385976 -3.19630858 41.54420924 0.625 41.375 C1.33140625 41.33632812 2.0378125 41.29765625 2.765625 41.2578125 C4.50998524 41.16352276 6.25495691 41.08067109 8 41 C7.5153125 40.51273438 7.030625 40.02546875 6.53125 39.5234375 C2.13443852 34.87296382 -1.35220614 30.10541651 -4.5 24.5625 C-5.0249707 23.63993408 -5.0249707 23.63993408 -5.56054688 22.69873047 C-8 18.28243681 -8 18.28243681 -8 16 C-5.525 16.99 -5.525 16.99 -3 18 C-3 18.66 -3 19.32 -3 20 C-2.34 20 -1.68 20 -1 20 C-0.67 21.65 -0.34 23.3 0 25 C2.51037817 23.29059127 2.51037817 23.29059127 4 20 C3.28263722 16.87498838 2.18444614 14.01752221 1.03125 11.02734375 C-0.30662318 7.09987514 -0.3155263 4.1018419 0 0 Z " fill="#0B1B2B" transform="translate(21,97)"/>
<path d="M0 0 C-0.27150712 12.31655023 -3.75661093 22.96093384 -12.45703125 31.89453125 C-16.50129916 35.24301113 -20.90305626 37.6755973 -26 39 C-28.32421875 38.61328125 -28.32421875 38.61328125 -30 38 C-29.236875 37.13375 -28.47375 36.2675 -27.6875 35.375 C-25.24779927 32.46399345 -23.57001723 29.47056439 -22 26 C-21.01 26 -20.02 26 -19 26 C-18.67 25.34 -18.34 24.68 -18 24 C-18.66 24 -19.32 24 -20 24 C-19.51675181 18.84535266 -16.81389239 15.18449681 -14 11 C-14.99 11 -15.98 11 -17 11 C-18.2783225 13.49883142 -19.46432649 16.01884589 -20.62890625 18.57421875 C-25.84109243 29.79417833 -31.53406101 37.10199476 -42 44 C-45.78323709 47.55767824 -47.62416628 50.73832795 -48 56 C-49.32 56 -50.64 56 -52 56 C-52.57475271 50.48237403 -51.56179071 47.53917218 -48.58203125 42.89453125 C-47 41 -47 41 -44.328125 39.15234375 C-41.69788222 37.18838507 -41.69788222 37.18838507 -41.65234375 34.046875 C-41.74644531 32.95890625 -41.84054688 31.8709375 -41.9375 30.75 C-42.22256531 22.78598784 -40.29590914 18.36768188 -35.125 12.4375 C-25.70584284 3.56762414 -12.68331839 -0.5284716 0 0 Z " fill="#93D4A6" transform="translate(133,57)"/>
<path d="M0 0 C11.77812212 -0.80305378 23.74787824 3.66871049 33.16796875 10.59375 C37.85603248 14.83199952 40.59042822 19.84486989 42 26 C42.17445665 31.0037339 41.18600551 35.48225528 39 40 C33.00189906 38.36415429 28.96654611 34.3780048 25.88769531 29.08935547 C24.29410045 26.13068377 22.75321795 23.15319106 21.28417969 20.13061523 C17.89463026 13.27826634 14.12761558 9.14941153 7 6 C7.51949219 6.40089844 8.03898437 6.80179688 8.57421875 7.21484375 C13.80394611 11.47789322 17.35340739 15.75251457 20 22 C20 22.66 20 23.32 20 24 C19.34 24 18.68 24 18 24 C18 24.99 18 25.98 18 27 C19.32 26.67 20.64 26.34 22 26 C22.24234375 26.51949219 22.4846875 27.03898437 22.734375 27.57421875 C24.77136078 31.81271608 26.87828828 35.43232946 30 39 C19.91915232 37.80186646 13.65229394 33.68626017 7.3125 25.84765625 C1.63859311 17.86028137 -0.34575161 9.68104508 0 0 Z " fill="#63C67E" transform="translate(23,57)"/>
<path d="M0 0 C1.61530609 -0.00845947 1.61530609 -0.00845947 3.26324463 -0.01708984 C5.04308746 -0.01101715 5.04308746 -0.01101715 6.85888672 -0.00482178 C8.10442322 -0.00832642 9.34995972 -0.01183105 10.63323975 -0.01544189 C14.05471885 -0.02275129 17.47595703 -0.02101667 20.89742279 -0.01468372 C24.47328523 -0.00963009 28.04913717 -0.0143134 31.625 -0.01745605 C37.63071548 -0.02109757 43.63638182 -0.01629177 49.64208984 -0.0067749 C56.59149934 0.00411003 63.54079149 0.00058458 70.49019814 -0.01042771 C76.45031554 -0.01949534 82.41039756 -0.02078845 88.37051964 -0.01555037 C91.93308817 -0.01242777 95.49560149 -0.01202924 99.0581665 -0.01862335 C103.02824487 -0.02545808 106.99819114 -0.0159926 110.96826172 -0.00482178 C112.15482361 -0.00887024 113.3413855 -0.0129187 114.56390381 -0.01708984 C116.1792099 -0.00863037 116.1792099 -0.00863037 117.82714844 0 C119.23636063 0.00113108 119.23636063 0.00113108 120.67404175 0.002285 C122.91357422 0.25396729 122.91357422 0.25396729 124.91357422 2.25396729 C124.37785993 5.78968157 124.37785993 5.78968157 122.91357422 7.25396729 C121.25599802 7.35008147 119.59430435 7.37584483 117.9339447 7.3742218 C116.31636513 7.3762838 116.31636513 7.3762838 114.66610718 7.37838745 C113.47280792 7.37479218 112.27950867 7.3711969 111.05004883 7.36749268 C109.80144577 7.3676387 108.55284271 7.36778473 107.2664032 7.36793518 C103.83266428 7.3673562 100.39898484 7.36232683 96.96525645 7.35536122 C93.38044963 7.34912726 89.79564209 7.34852385 86.21083069 7.34733582 C79.41807377 7.34422262 72.62533286 7.3360094 65.83258301 7.32598633 C58.10114928 7.31482481 50.3697148 7.30931464 42.63827503 7.30429089 C26.73003214 7.29382678 10.82180524 7.27622757 -5.08642578 7.25396729 C-5.74642578 5.60396729 -6.40642578 3.95396729 -7.08642578 2.25396729 C-4.51982574 -0.31263275 -3.56511675 0.00286147 0 0 Z " fill="#051121" transform="translate(19.08642578125,150.74603271484375)"/>
<path d="M0 0 C0.66 0.33 1.32 0.66 2 1 C1.57847656 1.68707031 1.15695313 2.37414062 0.72265625 3.08203125 C0.17480469 3.98308594 -0.37304688 4.88414063 -0.9375 5.8125 C-1.75541016 7.15248047 -1.75541016 7.15248047 -2.58984375 8.51953125 C-4.11009578 11.00703562 -4.11009578 11.00703562 -5 14 C-4.34 14 -3.68 14 -3 14 C-3.33 14.99 -3.66 15.98 -4 17 C-4.99 16.67 -5.98 16.34 -7 16 C-7.226875 16.86625 -7.45375 17.7325 -7.6875 18.625 C-9.24025095 22.61778814 -11.14319895 24.84248305 -14 28 C-10.21924012 27.40481777 -7.30989388 26.29305023 -3.9375 24.5 C-0.96141387 22.92253678 1.69120932 21.6724563 5 21 C3.7191375 24.64553172 2.83328987 26.16671013 0 29 C5.28 29 10.56 29 16 29 C16 29.33 16 29.66 16 30 C14.37191406 30.23783203 14.37191406 30.23783203 12.7109375 30.48046875 C11.26545881 30.71512438 9.820155 30.95085903 8.375 31.1875 C7.66214844 31.28869141 6.94929688 31.38988281 6.21484375 31.49414062 C0.79082634 32.41473074 -2.1390018 34.04483111 -6 38 C-7.08848535 39.92087042 -7.08848535 39.92087042 -7.375 41.8125 C-7.684375 43.3903125 -7.684375 43.3903125 -8 45 C-9.0625 43.1875 -9.0625 43.1875 -10 41 C-9.67 40.01 -9.34 39.02 -9 38 C-10.485 38.495 -10.485 38.495 -12 39 C-15.3 39 -18.6 39 -22 39 C-22 49.56 -22 60.12 -22 71 C-22.66 69.68 -23.32 68.36 -24 67 C-24.33 68.32 -24.66 69.64 -25 71 C-25.66 71 -26.32 71 -27 71 C-27.02689216 69.52093108 -27.04634621 68.04172517 -27.0625 66.5625 C-27.07410156 65.73878906 -27.08570312 64.91507812 -27.09765625 64.06640625 C-27 62 -27 62 -26 61 C-25.76712992 59.31816052 -25.58735834 57.6287584 -25.4375 55.9375 C-25.35371094 55.01839844 -25.26992187 54.09929687 -25.18359375 53.15234375 C-25.12300781 52.44207031 -25.06242187 51.73179688 -25 51 C-26.2236068 50.9254644 -26.2236068 50.9254644 -28 52 C-30.3400417 51.71758117 -32.67504723 51.38749213 -35 51 C-35 50.67 -35 50.34 -35 50 C-33.35 50 -31.7 50 -30 50 C-30 49.34 -30 48.68 -30 48 C-31.98 48 -33.96 48 -36 48 C-34.515 47.505 -34.515 47.505 -33 47 C-33.2165625 45.515 -33.2165625 45.515 -33.4375 44 C-33.42825174 39.42211375 -31.11286834 37.10657381 -28.06640625 33.90625 C-26.10141771 32.09355735 -24.10095616 30.50485937 -21.9375 28.9375 C-14.64742395 23.64834693 -10.84281084 17.28860521 -6.890625 9.33032227 C-5.01353578 5.61000392 -3.13953446 2.75581358 0 0 Z " fill="#03141D" transform="translate(118,67)"/>
<path d="M0 0 C1.32 0 2.64 0 4 0 C4.33 1.98 4.66 3.96 5 6 C5.9075 6.12375 6.815 6.2475 7.75 6.375 C10.58970323 6.92109677 12.52590591 7.57263803 15 9 C14.67 9.66 14.34 10.32 14 11 C14.66 11.66 15.32 12.32 16 13 C13.03 13 10.06 13 7 13 C7 19.93 7 26.86 7 34 C7.66 34 8.32 34 9 34 C9 34.66 9 35.32 9 36 C9.99 36.66 10.98 37.32 12 38 C3.09 38 -5.82 38 -15 38 C-14.67 36.35 -14.34 34.7 -14 33 C-12.515 32.505 -12.515 32.505 -11 32 C-10.029362 29.08808601 -9.82187438 27.00564158 -9.71875 23.96484375 C-9.68136719 22.99095703 -9.64398438 22.01707031 -9.60546875 21.01367188 C-9.53502248 18.95898896 -9.46471049 16.90430143 -9.39453125 14.84960938 C-9.35714844 13.87701172 -9.31976563 12.90441406 -9.28125 11.90234375 C-9.25095703 11.01023193 -9.22066406 10.11812012 -9.18945312 9.19897461 C-9 7 -9 7 -8 5 C-7.030625 4.87625 -6.06125 4.7525 -5.0625 4.625 C-1.88417172 4.3508355 -1.88417172 4.3508355 -0.625 1.9375 C-0.41875 1.298125 -0.2125 0.65875 0 0 Z " fill="#04152A" transform="translate(74,106)"/>
<path d="M0 0 C0.66 0 1.32 0 2 0 C3.125 4.75 3.125 4.75 2 7 C5.465 6.505 5.465 6.505 9 6 C6.8614515 8.1385485 5.86724686 8.42655063 3 9 C2.83312552 11.41645782 2.83312552 11.41645782 3 14 C3.66 14.66 4.32 15.32 5 16 C3.39936457 17.48298717 1.79422403 18.96111163 0.1875 20.4375 C-0.54605713 21.11703735 -0.54605713 21.11703735 -1.29443359 21.81030273 C-4.74865233 24.97290294 -8.36012606 27.76968395 -12.125 30.5625 C-15.82439575 33.47777442 -15.82439575 33.47777442 -17.91015625 37.5625 C-18.27988122 40.2967394 -18.27988122 40.2967394 -18 44 C-18.33 44 -18.66 44 -19 44 C-19 42.02 -19 40.04 -19 38 C-19.66 39.98 -20.32 41.96 -21 44 C-21.33 44 -21.66 44 -22 44 C-21.896875 42.741875 -21.79375 41.48375 -21.6875 40.1875 C-22.14715437 35.70410201 -24.00085336 33.64614518 -27.36767578 30.73486328 C-29.68661223 28.85793584 -32.03048725 27.01999338 -34.40869141 25.21875 C-36.444757 23.65936991 -38.3820784 22.0001263 -40.3125 20.3125 C-41.199375 19.549375 -42.08625 18.78625 -43 18 C-42.505 16.515 -42.505 16.515 -42 15 C-36.62117809 15.37526665 -34.55328348 17.04062697 -31 21 C-30.67 21 -30.34 21 -30 21 C-30.25523874 19.37247769 -30.52974494 17.74796804 -30.8125 16.125 C-30.96332031 15.22007813 -31.11414063 14.31515625 -31.26953125 13.3828125 C-31.83051301 10.65587522 -31.83051301 10.65587522 -35 9 C-35 8.34 -35 7.68 -35 7 C-31.70743319 7.56768393 -29.95543082 8.24462022 -28 11 C-27.39016482 13.00435339 -26.92110237 15.01232278 -26.47265625 17.05859375 C-25.9431853 19.23336284 -25.12675031 21.06842804 -24 23 C-23.34 23 -22.68 23 -22 23 C-22 23.66 -22 24.32 -22 25 C-17.22704672 21.6412551 -13.15647164 18.70726952 -11.875 12.8125 C-11 9 -11 9 -8 7 C-7.01 7 -6.02 7 -5 7 C-5 7.66 -5 8.32 -5 9 C-5.99 9.66 -6.98 10.32 -8 11 C-8.79597276 13.11608359 -8.79597276 13.11608359 -9.1875 15.5 C-9.42533203 16.69109375 -9.42533203 16.69109375 -9.66796875 17.90625 C-10.0522083 19.97590045 -10.0522083 19.97590045 -10 22 C-4.5422731 18.31234669 -2.71590395 14.32000456 -1.375 8.1015625 C-0.87602979 5.40573733 -0.41649582 2.70967283 0 0 Z " fill="#091521" transform="translate(98,33)"/>
<path d="M0 0 C-0.42330402 2.44075297 -0.86289462 4.87657829 -1.3125 7.3125 C-1.43044922 8.00279297 -1.54839844 8.69308594 -1.66992188 9.40429688 C-2.88688194 15.86354643 -2.88688194 15.86354643 -6 18 C-9.1875 19.1875 -9.1875 19.1875 -12 20 C-12.33 18.68 -12.66 17.36 -13 16 C-13.6290625 16.64066406 -14.258125 17.28132813 -14.90625 17.94140625 C-20.09911241 23.18901269 -25.36869252 28.22790232 -31 33 C-32.33354912 34.14558219 -33.66689367 35.29140257 -35 36.4375 C-36.485 37.7059375 -36.485 37.7059375 -38 39 C-39.11712391 35.33417857 -39.16208155 32.66825743 -38 29 C-34.29576636 24.50547725 -29.49833217 21.00186231 -24.90136719 17.47021484 C-22.205183 15.385415 -19.60600784 13.19602841 -17 11 C-17.66 10.34 -18.32 9.68 -19 9 C-19.125 6.375 -19.125 6.375 -19 4 C-12.93661121 1.26169539 -6.64520911 -0.16379037 0 0 Z " fill="#EFF2F4" transform="translate(119,38)"/>
<path d="M0 0 C0 0.66 0 1.32 0 2 C0.845625 2.061875 1.69125 2.12375 2.5625 2.1875 C6.96810051 3.22882376 9.87500035 4.70138926 13 8 C16.38216342 13.53708468 17.59554833 18.62292003 16.49609375 25.015625 C15.88491115 27.46035541 15.09790612 29.73099401 14 32 C7.95602083 30.35164205 3.97606106 26.33527849 0.83935547 21.04101562 C-1.5798876 16.646623 -3.85073217 12.18078001 -6.05786133 7.67651367 C-7.0043039 5.8156809 -7.0043039 5.8156809 -9 4 C-9 3.01 -9 2.02 -9 1 C-6.04335481 -0.4783226 -3.25770263 -0.06032783 0 0 Z " fill="#62C67C" transform="translate(48,65)"/>
<path d="M0 0 C2.01171875 1.1796875 2.01171875 1.1796875 4 3 C4.20703125 5.4453125 4.20703125 5.4453125 3.8125 8.125 C3.69519531 9.01445313 3.57789062 9.90390625 3.45703125 10.8203125 C3 13 3 13 2 14 C2 18.95 2 23.9 2 29 C26.75 29.495 26.75 29.495 52 30 C52 30.33 52 30.66 52 31 C44.64939985 31.0759439 37.29890053 31.12855502 29.94799805 31.16479492 C27.44633198 31.17989944 24.94469247 31.20038429 22.44311523 31.22631836 C18.85133316 31.26262775 15.25990059 31.27970975 11.66796875 31.29296875 C10.54601608 31.30845261 9.42406342 31.32393646 8.26811218 31.33988953 C6.70683342 31.34022942 6.70683342 31.34022942 5.11401367 31.34057617 C4.19690109 31.34723801 3.27978851 31.35389984 2.33488464 31.36076355 C-0.42027182 30.93506371 -1.28887167 30.14361642 -3 28 C-3 28.99 -3 29.98 -3 31 C-27.09 31 -51.18 31 -76 31 C-76 30.67 -76 30.34 -76 30 C-52.24 30 -28.48 30 -4 30 C-4 29.34 -4 28.68 -4 28 C-5.32 27.67 -6.64 27.34 -8 27 C-7.67 26.34 -7.34 25.68 -7 25 C-7.66 25 -8.32 25 -9 25 C-9 18.07 -9 11.14 -9 4 C-5.7 3.67 -2.4 3.34 1 3 C0.505 1.515 0.505 1.515 0 0 Z " fill="#262F3C" transform="translate(90,115)"/>
<path d="M0 0 C0.66 0 1.32 0 2 0 C2.36781468 10.11490372 0.97740054 17.37003682 -6 25 C-10.29194421 29.19656768 -15.18404185 32.37153172 -21 34 C-23.2734375 33.6015625 -23.2734375 33.6015625 -25 33 C-24.236875 32.13375 -23.47375 31.2675 -22.6875 30.375 C-20.24779927 27.46399345 -18.57001723 24.47056439 -17 21 C-16.01 21 -15.02 21 -14 21 C-13.67 20.34 -13.34 19.68 -13 19 C-13.66 19 -14.32 19 -15 19 C-14.57032431 14.41679259 -12.51392835 11.45796831 -9.9609375 7.76953125 C-9.64382812 7.18558594 -9.32671875 6.60164063 -9 6 C-9.33 5.34 -9.66 4.68 -10 4 C-8.375 2.4375 -8.375 2.4375 -6 1 C-2.75 1.3125 -2.75 1.3125 0 2 C0 1.34 0 0.68 0 0 Z " fill="#64C683" transform="translate(128,62)"/>
<path d="M0 0 C0.42850617 7.88768763 -0.01374471 13.6404628 -5.5 19.8125 C-9.58523297 23.38707885 -11.61998361 24.23911184 -17 24 C-17 21 -17 21 -15.609375 19.4921875 C-14.99578125 18.95851563 -14.3821875 18.42484375 -13.75 17.875 C-9.76288845 14.09816208 -7.86435725 10.10671767 -6 5 C-6.99 5 -7.98 5 -9 5 C-9.268125 6.11375 -9.53625 7.2275 -9.8125 8.375 C-11 12 -11 12 -14 14 C-15 13 -15 13 -15.0625 9.9375 C-15.041875 8.968125 -15.02125 7.99875 -15 7 C-15.66 6.67 -16.32 6.34 -17 6 C-16.96519531 6.75925781 -16.93039063 7.51851563 -16.89453125 8.30078125 C-16.86746094 9.29464844 -16.84039062 10.28851563 -16.8125 11.3125 C-16.77769531 12.29863281 -16.74289063 13.28476563 -16.70703125 14.30078125 C-17 17 -17 17 -18.38671875 18.85546875 C-20 20 -20 20 -22 20 C-23.89170527 16.21658946 -23.74840614 12.10051097 -23 8 C-20.24009397 3.74334242 -16.31589736 1.83103947 -11.5 0.625 C-7.62618821 -0.03946171 -3.9215409 -0.16687408 0 0 Z " fill="#7FDAA4" transform="translate(134,97)"/>
<path d="M0 0 C16.767713 0.51121076 16.767713 0.51121076 23.0625 7.1875 C24.42203949 11.26611847 23.75439528 14.82810318 23 19 C21.35 18.67 19.7 18.34 18 18 C16.82428549 14.32589215 16.92633254 10.83070817 17 7 C16.34 6.67 15.68 6.34 15 6 C15 8.64 15 11.28 15 14 C14.34 14 13.68 14 13 14 C12.73445313 13.43410156 12.46890625 12.86820313 12.1953125 12.28515625 C11.84210937 11.55167969 11.48890625 10.81820312 11.125 10.0625 C10.60292969 8.96615234 10.60292969 8.96615234 10.0703125 7.84765625 C9.1315023 5.83667541 9.1315023 5.83667541 7 5 C9.36835248 12.74388935 12.46408801 17.20911306 19 22 C18.67 22.66 18.34 23.32 18 24 C12.68098483 24.50657287 10.13515188 23.32610043 6 20 C1.34769454 15.21846384 -0.10176789 10.13718588 -0.125 3.5625 C-0.08375 2.386875 -0.0425 1.21125 0 0 Z " fill="#70CB97" transform="translate(21,97)"/>
<path d="M0 0 C0.08856584 5.46577734 -0.6052364 9.11430157 -4.25 13.3125 C-7.58289506 16.7468016 -11.19132228 19.64349171 -15.015625 22.51171875 C-20.20192482 26.66262418 -22.07203028 29.38821574 -23 36 C-24.32 36 -25.64 36 -27 36 C-27.57475271 30.48237403 -26.56179071 27.53917218 -23.58203125 22.89453125 C-22 21 -22 21 -19.34375 19.18359375 C-16.68081435 17.15628004 -16.68081435 17.15628004 -16.51171875 13.765625 C-16.56972656 12.60546875 -16.62773438 11.4453125 -16.6875 10.25 C-16.73261719 9.07953125 -16.77773437 7.9090625 -16.82421875 6.703125 C-16.88222656 5.81109375 -16.94023438 4.9190625 -17 4 C-15.96875 3.71125 -14.9375 3.4225 -13.875 3.125 C-11.47867004 2.44725011 -9.16529314 1.70539758 -6.8125 0.875 C-4 0 -4 0 0 0 Z " fill="#4BAA68" transform="translate(108,77)"/>
<path d="M0 0 C2.64 0 5.28 0 8 0 C8 12.21 8 24.42 8 37 C5.36 37 2.72 37 0 37 C0 24.79 0 12.58 0 0 Z " fill="#F1F6F7" transform="translate(51,102)"/>
<path d="M0 0 C4.29 0 8.58 0 13 0 C13 1.65 13 3.3 13 5 C14.60054968 7.06384754 14.60054968 7.06384754 16.875 8.8125 C17.68582031 9.50214844 18.49664062 10.19179688 19.33203125 10.90234375 C21.11848276 12.30691836 22.95151106 13.6540816 24.82421875 14.94140625 C31.72679628 19.81555158 31.72679628 19.81555158 32.62890625 23.7265625 C32.62537838 26.23134805 32.45379026 28.53944835 32 31 C28.18728209 27.82273508 24.54483529 24.600001 21.0625 21.0625 C17.2190517 17.1588803 13.17035511 13.54923839 9 10 C7.02 10.99 7.02 10.99 5 12 C4.15885829 10.56705502 3.32734313 9.12845595 2.5 7.6875 C1.80390625 6.48673828 1.80390625 6.48673828 1.09375 5.26171875 C0 3 0 3 0 0 Z " fill="#F0F4F3" transform="translate(43,46)"/>
<path d="M0 0 C2.64 0 5.28 0 8 0 C8 10.89 8 21.78 8 33 C5.36 33 2.72 33 0 33 C0 22.11 0 11.22 0 0 Z " fill="#F5F8F9" transform="translate(97,106)"/>
<path d="M0 0 C-0.25854583 7.03244656 -0.81492739 13.14915836 -5 19 C-7.75 21.5 -7.75 21.5 -10 23 C-10.66 22.67 -11.32 22.34 -12 22 C-11.71125 21.319375 -11.4225 20.63875 -11.125 19.9375 C-9.89674264 16.90698304 -9.89674264 16.90698304 -9.0625 13.25 C-8.711875 12.1775 -8.36125 11.105 -8 10 C-7.01 9.67 -6.02 9.34 -5 9 C-5 8.34 -5 7.68 -5 7 C-6.98 7.66 -8.96 8.32 -11 9 C-11.09796875 9.68707031 -11.1959375 10.37414063 -11.296875 11.08203125 C-11.44640625 11.98308594 -11.5959375 12.88414063 -11.75 13.8125 C-11.95882812 15.15248047 -11.95882812 15.15248047 -12.171875 16.51953125 C-13.168841 19.50572658 -14.3582435 20.38380344 -17 22 C-17.61759201 12.35870243 -17.61759201 12.35870243 -15.4375 7.5625 C-11.28638166 3.1985038 -6.19320036 0 0 0 Z " fill="#85C399" transform="translate(98,33)"/>
<path d="M0 0 C12.6232849 3.23548273 12.6232849 3.23548273 16.1171875 8.76953125 C17.21937568 11.55426333 17.19607894 13.76468461 17.125 16.75 C17.10695313 17.73484375 17.08890625 18.7196875 17.0703125 19.734375 C17.04710938 20.48203125 17.02390625 21.2296875 17 22 C13.50586395 19.13301658 11.71163126 17.15849852 11.1875 12.6875 C11.125625 11.470625 11.06375 10.25375 11 9 C9.02 8.34 7.04 7.68 5 7 C5 7.66 5 8.32 5 9 C5.63550781 9.226875 6.27101563 9.45375 6.92578125 9.6875 C9 11 9 11 9.79296875 13.3125 C9.98826172 14.6428125 9.98826172 14.6428125 10.1875 16 C10.70761299 19.622388 10.70761299 19.622388 12 23 C8.10113956 21.41157538 5.6508245 19.26255323 3 16 C0.80426983 10.78078425 -0.44929412 5.69105887 0 0 Z " fill="#86C39E" transform="translate(58,33)"/>
<path d="M0 0 C0.33 0 0.66 0 1 0 C1.33 1.32 1.66 2.64 2 4 C4.33075929 3.04134491 4.33075929 3.04134491 6 0 C6.33 2.64 6.66 5.28 7 8 C9.31 5.69 11.62 3.38 14 1 C14 3.82980854 13.65595207 5.37852168 12.75 8 C12.48058594 8.78246094 12.21117188 9.56492187 11.93359375 10.37109375 C10.31665535 14.92422991 8.66956214 19.46590993 7 24 C6.67 24 6.34 24 6 24 C5.67 21.03 5.34 18.06 5 15 C3.68 15 2.36 15 1 15 C0.67 17.64 0.34 20.28 0 23 C-2.97992514 20.52230944 -3.77388497 18.20525299 -4.75 14.5 C-5.01296875 13.5409375 -5.2759375 12.581875 -5.546875 11.59375 C-6 9 -6 9 -5 6 C-3.68 6.66 -2.36 7.32 -1 8 C-0.67 5.36 -0.34 2.72 0 0 Z " fill="#132032" transform="translate(75,68)"/>
<path d="M0 0 C0.66 0.33 1.32 0.66 2 1 C2 1.66 2 2.32 2 3 C0.35 3.66 -1.3 4.32 -3 5 C-2.01 5.66 -1.02 6.32 0 7 C0.26727014 9.48340903 0.34866334 11.71472068 0.29296875 14.1953125 C0.28872391 14.90275604 0.28447906 15.61019958 0.28010559 16.33908081 C0.26329547 18.60143905 0.22564128 20.86291048 0.1875 23.125 C0.17245607 24.65753923 0.15876716 26.1900924 0.14648438 27.72265625 C0.11338462 31.48211318 0.06158825 35.24090618 0 39 C-0.66 37.68 -1.32 36.36 -2 35 C-2.33 36.32 -2.66 37.64 -3 39 C-3.66 39 -4.32 39 -5 39 C-5.02689216 37.52093108 -5.04634621 36.04172517 -5.0625 34.5625 C-5.07410156 33.73878906 -5.08570312 32.91507813 -5.09765625 32.06640625 C-5 30 -5 30 -4 29 C-3.76712992 27.31816052 -3.58735834 25.6287584 -3.4375 23.9375 C-3.35371094 23.01839844 -3.26992187 22.09929687 -3.18359375 21.15234375 C-3.12300781 20.44207031 -3.06242187 19.73179688 -3 19 C-4.2236068 18.9254644 -4.2236068 18.9254644 -6 20 C-8.3400417 19.71758117 -10.67504723 19.38749213 -13 19 C-13 18.67 -13 18.34 -13 18 C-11.35 18 -9.7 18 -8 18 C-8 17.34 -8 16.68 -8 16 C-8.66 15.34 -9.32 14.68 -10 14 C-9.34 12.68 -8.68 11.36 -8 10 C-7.34 10 -6.68 10 -6 10 C-6.12375 9.0925 -6.2475 8.185 -6.375 7.25 C-6.189375 5.64125 -6.189375 5.64125 -6 4 C-3 1.625 -3 1.625 0 0 Z " fill="#031122" transform="translate(96,99)"/>
<path d="M0 0 C2.15377564 2.62198774 3.40072174 4.64404172 4 8 C3.34 8 2.68 8 2 8 C2 8.99 2 9.98 2 11 C3.32 10.67 4.64 10.34 6 10 C6.24234375 10.51949219 6.4846875 11.03898437 6.734375 11.57421875 C8.77136078 15.81271608 10.87828828 19.43232946 14 23 C6.77114623 22.14083295 1.09389076 20.43969013 -4 15 C-5 12.125 -5 12.125 -5 10 C-4.34 10 -3.68 10 -3 10 C-3.66 9.67 -4.32 9.34 -5 9 C-5.40729228 6.67843403 -5.74438677 4.3431213 -6 2 C-5.01 1.67 -4.02 1.34 -3 1 C-3 1.99 -3 2.98 -3 4 C-2.34 4 -1.68 4 -1 4 C-0.67 2.68 -0.34 1.36 0 0 Z " fill="#327B56" transform="translate(39,73)"/>
<path d="M0 0 C0.66 0.33 1.32 0.66 2 1 C1.57847656 1.68707031 1.15695313 2.37414062 0.72265625 3.08203125 C0.17480469 3.98308594 -0.37304688 4.88414063 -0.9375 5.8125 C-1.75541016 7.15248047 -1.75541016 7.15248047 -2.58984375 8.51953125 C-4.11009578 11.00703562 -4.11009578 11.00703562 -5 14 C-4.34 14 -3.68 14 -3 14 C-3.33 14.99 -3.66 15.98 -4 17 C-4.99 16.67 -5.98 16.34 -7 16 C-7.226875 16.86625 -7.45375 17.7325 -7.6875 18.625 C-10.20415855 25.09640771 -13.83536973 28.16427008 -20 31 C-22.57699828 32.43397485 -24.95116922 33.86208962 -27 36 C-27.5863982 39.21276343 -27.5863982 39.21276343 -27 42 C-28.485 42.495 -28.485 42.495 -30 43 C-31.21869929 45.50447516 -31.21869929 45.50447516 -32 48 C-33.32 47.67 -34.64 47.34 -36 47 C-35.01 47 -34.02 47 -33 47 C-33.2165625 45.515 -33.2165625 45.515 -33.4375 44 C-33.42825174 39.42211375 -31.11286834 37.10657381 -28.06640625 33.90625 C-26.10141771 32.09355735 -24.10095616 30.50485937 -21.9375 28.9375 C-14.64742395 23.64834693 -10.84281084 17.28860521 -6.890625 9.33032227 C-5.01353578 5.61000392 -3.13953446 2.75581358 0 0 Z " fill="#042315" transform="translate(118,67)"/>
<path d="M0 0 C0.99 0.33 1.98 0.66 3 1 C3.33 3.64 3.66 6.28 4 9 C3.01 9.33 2.02 9.66 1 10 C0.59394531 11.40958984 0.59394531 11.40958984 0.1796875 12.84765625 C-1.35626399 16.95200344 -2.97069779 17.59990055 -6.875 19.4375 C-7.92429687 19.95183594 -8.97359375 20.46617188 -10.0546875 20.99609375 C-13.01904027 22.00648985 -14.15710068 22.16050721 -17 21 C-16.236875 20.13375 -15.47375 19.2675 -14.6875 18.375 C-12.24779927 15.46399345 -10.57001723 12.47056439 -9 9 C-8.01 9 -7.02 9 -6 9 C-5.67 8.34 -5.34 7.68 -5 7 C-5.66 7 -6.32 7 -7 7 C-6.67 5.35 -6.34 3.7 -6 2 C-4.68 3.65 -3.36 5.3 -2 7 C-1.34 4.69 -0.68 2.38 0 0 Z " fill="#399058" transform="translate(120,74)"/>
<path d="M0 0 C0.66 0.33 1.32 0.66 2 1 C1.49675344 3.6168821 0.72561298 5.53734125 -0.5 7.9375 C-2.09644851 10.85039481 -2.09644851 10.85039481 -2.5 13.6875 C-3.0758637 16.35086961 -3.93099243 17.29081983 -6 19 C-5.814375 18.05125 -5.62875 17.1025 -5.4375 16.125 C-4.71313368 13.10131207 -4.71313368 13.10131207 -6 11 C-6.66 11 -7.32 11 -8 11 C-8.33 11.66 -8.66 12.32 -9 13 C-11.56634394 13.64158599 -14.13823206 14.02199146 -16.75 14.4375 C-17.86375 14.7159375 -17.86375 14.7159375 -19 15 C-19.33 15.66 -19.66 16.32 -20 17 C-19.39457203 10.58246347 -19.39457203 10.58246347 -17.6875 8.0625 C-16 7 -16 7 -12 7 C-11.401875 6.195625 -10.80375 5.39125 -10.1875 4.5625 C-8 2 -8 2 -4.3125 1.25 C-3.219375 1.1675 -2.12625 1.085 -1 1 C-0.67 0.67 -0.34 0.34 0 0 Z " fill="#69CC83" transform="translate(112,66)"/>
<path d="M0 0 C10.89214894 -0.74264652 21.93993188 3.07820849 31 9 C33.34375 11.6953125 33.34375 11.6953125 35 14 C34.46375 13.71125 33.9275 13.4225 33.375 13.125 C30.64719516 11.83288192 27.87387282 10.91441408 25 10 C25 9.34 25 8.68 25 8 C24.05640625 8.30357422 24.05640625 8.30357422 23.09375 8.61328125 C16.09812819 10.49914918 16.09812819 10.49914918 12.765625 8.984375 C11.43742518 8.04742784 10.12297107 7.09063847 8.82421875 6.11328125 C6.8649119 4.67492498 6.8649119 4.67492498 3.5625 5.25 C2.716875 5.4975 1.87125 5.745 1 6 C0 5 0 5 -0.0625 2.4375 C-0.041875 1.633125 -0.02125 0.82875 0 0 Z " fill="#A2DFB5" transform="translate(23,57)"/>
<path d="M0 0 C2.64 0 5.28 0 8 0 C8 6.6 8 13.2 8 20 C7.01 19.01 6.02 18.02 5 17 C4.34 17.66 3.68 18.32 3 19 C2.01 19 1.02 19 0 19 C0 12.73 0 6.46 0 0 Z " fill="#38557F" transform="translate(66,112)"/>
<path d="M0 0 C2 3 2 3 2 5 C2.99 5.33 3.98 5.66 5 6 C3.56696099 12.09041578 1.75076075 15.90073522 -3.375 19.8125 C-6.44132467 21.19964687 -8.67079034 21.23227044 -12 21 C-12 18 -12 18 -10.609375 16.4921875 C-9.68898438 15.69167969 -9.68898438 15.69167969 -8.75 14.875 C-4.76288845 11.09816208 -2.86435725 7.10671767 -1 2 C-1.66 1.67 -2.32 1.34 -3 1 C-2.01 0.67 -1.02 0.34 0 0 Z " fill="#63B17F" transform="translate(129,100)"/>
<path d="M0 0 C1.98 0.495 1.98 0.495 4 1 C3.125 4.875 3.125 4.875 2 6 C0.3424238 6.09611419 -1.31926986 6.12187755 -2.97962952 6.12025452 C-4.59720909 6.12231651 -4.59720909 6.12231651 -6.24746704 6.12442017 C-7.4407663 6.12082489 -8.63406555 6.11722961 -9.86352539 6.11352539 C-11.11212845 6.11367142 -12.36073151 6.11381744 -13.64717102 6.1139679 C-17.08090994 6.11338891 -20.51458938 6.10835955 -23.94831777 6.10139394 C-27.53312459 6.09515998 -31.11793213 6.09455657 -34.70274353 6.09336853 C-41.49550045 6.09025534 -48.28824135 6.08204212 -55.08099121 6.07201904 C-62.81242494 6.06085753 -70.54385942 6.05534736 -78.27529919 6.05032361 C-94.18354208 6.03985949 -110.09176898 6.02226029 -126 6 C-126 5.67 -126 5.34 -126 5 C-84.75 4.67 -43.5 4.34 -1 4 C-0.67 2.68 -0.34 1.36 0 0 Z " fill="#3C444D" transform="translate(140,152)"/>
<path d="M0 0 C7.11758138 1.82077663 10.73024647 6.28273533 15 12 C16.17374115 14.26708907 17.29651938 16.56107678 18.375 18.875 C20.97477681 24.30722122 23.78497999 28.68217463 28 33 C27.34 33 26.68 33 26 33 C26 33.99 26 34.98 26 36 C25.34 36 24.68 36 24 36 C22.95650161 34.36021682 21.96817992 32.68535024 21 31 C19.68381102 29.19910669 18.34577488 27.41838494 16.98828125 25.6484375 C16 24 16 24 16 21 C14.68 21.33 13.36 21.66 12 22 C12 21.01 12 20.02 12 19 C12.66 19 13.32 19 14 19 C10.73057705 12.15154966 7.55749509 6.95324522 1.5390625 2.2421875 C1.03117187 1.83226562 0.52328125 1.42234375 0 1 C0 0.67 0 0.34 0 0 Z " fill="#05241C" transform="translate(29,62)"/>
<path d="M0 0 C1.56079093 2.34118639 2.58327699 4.2792825 3.6875 6.8125 C5.88520092 11.33324599 9.01041024 14.04142782 13 17 C12.67 17.66 12.34 18.32 12 19 C6.68098483 19.50657287 4.13515188 18.32610043 0 15 C-2.4375 12.75 -2.4375 12.75 -4 10 C-4.02634095 7.1709821 -3.56957351 4.8004031 -3 2 C-2.01 2 -1.02 2 0 2 C0 1.34 0 0.68 0 0 Z " fill="#3F9366" transform="translate(27,102)"/>
<path d="M0 0 C0.33 0 0.66 0 1 0 C0.58846263 4.97093824 0.20399168 9.44508386 -2 14 C-7.32697239 12.54718935 -10.36402802 8.91888622 -14 5 C-12 2 -12 2 -10.3125 1.3125 C-7.20520453 0.89259521 -4.13214437 1 -1 1 C-0.67 0.67 -0.34 0.34 0 0 Z " fill="#429161" transform="translate(64,83)"/>
<path d="M0 0 C3 1 3 1 4.6875 3 C6.43567211 6.99582196 6.62148362 10.68997073 6 15 C5.01 16.485 5.01 16.485 4 18 C3.34 18 2.68 18 2 18 C2 14.37 2 10.74 2 7 C1.34 7 0.68 7 0 7 C0 10.63 0 14.26 0 18 C-0.99 17.67 -1.98 17.34 -3 17 C-4.73107488 13.53785023 -4.48819473 9.78509418 -4 6 C-2.90291271 3.63814832 -1.6695627 2.03477954 0 0 Z " fill="#9CD5B4" transform="translate(77,10)"/>
<path d="M0 0 C1.65 0 3.3 0 5 0 C5 5.61 5 11.22 5 17 C5.33 17 5.66 17 6 17 C6 18.65 6 20.3 6 22 C4.35 22.66 2.7 23.32 1 24 C1 23.34 1 22.68 1 22 C0.34 21.67 -0.32 21.34 -1 21 C-0.98259766 19.91332031 -0.98259766 19.91332031 -0.96484375 18.8046875 C-0.9000642 12.65517659 -0.9000642 12.65517659 -1.625 6.5625 C-2.05432578 3.62877384 -1.59899656 2.44552415 0 0 Z " fill="#082128" transform="translate(75,34)"/>
<path d="M0 0 C0.99 0.33 1.98 0.66 3 1 C3.40234375 3.07421875 3.40234375 3.07421875 3 6 C1.12211279 8.54730863 -1.13556349 10.65036696 -3.4375 12.8125 C-4.35499023 13.7087207 -4.35499023 13.7087207 -5.29101562 14.62304688 C-9.81803571 19 -9.81803571 19 -11 19 C-11.7335579 15.4507653 -11.89733474 12.53081713 -11 9 C-7.80323117 5.31305995 -4.25510616 2.39542156 0 0 Z " fill="#F8FAFB" transform="translate(92,58)"/>
<path d="M0 0 C2.475 0.99 2.475 0.99 5 2 C5 2.66 5 3.32 5 4 C5.70125 3.896875 6.4025 3.79375 7.125 3.6875 C10.38992118 4.04238274 12.37221846 5.04533982 14.83984375 7.22265625 C17.14553186 10.75493938 16.42351092 14.96096068 16 19 C11.89018194 15.58972544 7.92089948 12.06856279 4.0625 8.375 C3.29035156 7.64023438 2.51820312 6.90546875 1.72265625 6.1484375 C0 4 0 4 0 0 Z " fill="#EFF4F2" transform="translate(59,58)"/>
<path d="M0 0 C0.33 0 0.66 0 1 0 C1 10.89 1 21.78 1 33 C3.64 33 6.28 33 9 33 C9 33.66 9 34.32 9 35 C9.33 35.99 9.66 36.98 10 38 C5.38 38 0.76 38 -4 38 C-3.4140625 30.28515625 -3.4140625 30.28515625 -3 28 C-2.34 27.67 -1.68 27.34 -1 27 C-0.67 18.09 -0.34 9.18 0 0 Z " fill="#121C2B" transform="translate(96,106)"/>
<path d="M0 0 C2.97 0 5.94 0 9 0 C8.22095672 11.52164009 8.22095672 11.52164009 6 17 C4.46833832 12.91556885 5.36918348 9.20544343 6 5 C5.34 5 4.68 5 4 5 C4 5.66 4 6.32 4 7 C2.63875 6.938125 2.63875 6.938125 1.25 6.875 C-1.8782046 6.99531556 -3.38614006 7.3914708 -6 9 C-6 9.66 -6 10.32 -6 11 C-6.66 11 -7.32 11 -8 11 C-8.2475 11.515625 -8.495 12.03125 -8.75 12.5625 C-10.39581616 15.77184151 -12.1976096 18.87585664 -14 22 C-14.33 21.34 -14.66 20.68 -15 20 C-14.01290102 18.25612514 -13.01896905 16.5151997 -11.96875 14.80859375 C-10.82778863 12.93105123 -10.82778863 12.93105123 -10.625 10.25 C-10 8 -10 8 -7.375 6.1875 C-3.69877506 4.89401345 -0.86828756 4.76790275 3 5 C3 4.01 3 3.02 3 2 C2.01 1.34 1.02 0.68 0 0 Z " fill="#81D99D" transform="translate(124,57)"/>
<path d="M0 0 C1.22589844 0.15275391 1.22589844 0.15275391 2.4765625 0.30859375 C3.41628906 0.43427734 3.41628906 0.43427734 4.375 0.5625 C4.375 1.2225 4.375 1.8825 4.375 2.5625 C5.365 2.2325 6.355 1.9025 7.375 1.5625 C7.705 3.2125 8.035 4.8625 8.375 6.5625 C6.60478678 6.899111 4.83380326 7.23167293 3.0625 7.5625 C2.07636719 7.748125 1.09023438 7.93375 0.07421875 8.125 C-2.625 8.5625 -2.625 8.5625 -5.625 8.5625 C-6.615 6.5825 -7.605 4.6025 -8.625 2.5625 C-7.965 2.5625 -7.305 2.5625 -6.625 2.5625 C-6.625 1.9025 -6.625 1.2425 -6.625 0.5625 C-4.10446405 -0.69776798 -2.7707902 -0.35624445 0 0 Z " fill="#4CAE68" transform="translate(54.625,77.4375)"/>
<path d="M0 0 C0.33 0 0.66 0 1 0 C1 5.94 1 11.88 1 18 C2.98 17.01 4.96 16.02 7 15 C9.32590854 18.63423209 9.16265833 21.77088331 9 26 C6.03 26 3.06 26 0 26 C0 17.42 0 8.84 0 0 Z " fill="#1F3856" transform="translate(65,113)"/>
<path d="M0 0 C0 0.66 0 1.32 0 2 C1.299375 2.12375 1.299375 2.12375 2.625 2.25 C6.47734858 3.10607746 8.848219 4.67368546 12 7 C11.67 7.99 11.34 8.98 11 10 C11 9.34 11 8.68 11 8 C7.9254644 8.7763932 7.9254644 8.7763932 6 11 C4 8 4 8 4 5 C1.69 4.34 -0.62 3.68 -3 3 C-3 4.65 -3 6.3 -3 8 C-2.34 8.33 -1.68 8.66 -1 9 C-1 10.98 -1 12.96 -1 15 C-8.30769231 5.5 -8.30769231 5.5 -9 1 C-6.04335481 -0.4783226 -3.25770263 -0.06032783 0 0 Z " fill="#7FD693" transform="translate(48,65)"/>
<path d="M0 0 C2.97 0 5.94 0 9 0 C9 3.3 9 6.6 9 10 C2.84765625 10.87890625 2.84765625 10.87890625 1 11 C0 10 0 10 -0.09765625 7.71484375 C-0.08605469 6.79832031 -0.07445313 5.88179688 -0.0625 4.9375 C-0.05347656 4.01839844 -0.04445313 3.09929687 -0.03515625 2.15234375 C-0.02355469 1.44207031 -0.01195313 0.73179688 0 0 Z " fill="#3E5E88" transform="translate(81,119)"/>
<path d="M0 0 C0.5775 0.226875 1.155 0.45375 1.75 0.6875 C0.41692389 3.63701139 -1.08327171 5.72920454 -3.3125 8.0625 C-6.0649512 11.1631932 -7.04348725 13.45398855 -7.25 17.6875 C-8.57 17.6875 -9.89 17.6875 -11.25 17.6875 C-11.91457244 11.30760462 -10.17766955 7.69556003 -6.25 2.6875 C-3.12804878 -0.43445122 -3.12804878 -0.43445122 0 0 Z " fill="#62A780" transform="translate(92.25,95.3125)"/>
<path d="M0 0 C0.99 0 1.98 0 3 0 C3 0.66 3 1.32 3 2 C3.66 2 4.32 2 5 2 C5 2.66 5 3.32 5 4 C5.66 4 6.32 4 7 4 C7 4.99 7 5.98 7 7 C6.34 7 5.68 7 5 7 C4.67 7.99 4.34 8.98 4 10 C3.125 12.125 3.125 12.125 2 14 C1.01 14.33 0.02 14.66 -1 15 C-1.99 11.37 -2.98 7.74 -4 4 C-2.68 2.68 -1.36 1.36 0 0 Z " fill="#122130" transform="translate(13,98)"/>
<path d="M0 0 C3 1 3 1 4.6875 3.9375 C6 7 6 7 6 9 C6.66 9 7.32 9 8 9 C8 6.36 8 3.72 8 1 C8.99 1.33 9.98 1.66 11 2 C10.98839844 2.66386719 10.97679687 3.32773438 10.96484375 4.01171875 C10.88106591 10.56306787 10.88106591 10.56306787 12 17 C6.63335651 14.64192938 3.21859 10.43718 0.625 5.25 C0 3 0 3 0 0 Z " fill="#07271F" transform="translate(28,102)"/>
<path d="M0 0 C2.15377564 2.62198774 3.40072174 4.64404172 4 8 C3.34 8 2.68 8 2 8 C1.87625 8.556875 1.7525 9.11375 1.625 9.6875 C0.94023145 12.22114364 0.00866237 14.57921032 -1 17 C-4 15 -4 15 -4.6875 12.375 C-4.790625 11.59125 -4.89375 10.8075 -5 10 C-4.34 10 -3.68 10 -3 10 C-3.66 9.67 -4.32 9.34 -5 9 C-5.40729228 6.67843403 -5.74438677 4.3431213 -6 2 C-5.01 1.67 -4.02 1.34 -3 1 C-3 1.99 -3 2.98 -3 4 C-2.34 4 -1.68 4 -1 4 C-0.67 2.68 -0.34 1.36 0 0 Z " fill="#47A46A" transform="translate(39,73)"/>
<path d="M0 0 C2.97 0 5.94 0 9 0 C9 2.97 9 5.94 9 9 C5 10 5 10 0 10 C0 6.7 0 3.4 0 0 Z " fill="#1F3651" transform="translate(81,129)"/>
<path d="M0 0 C0.33 0.99 0.66 1.98 1 3 C2.99665598 4.67067133 4.99651034 6.33752986 7 8 C7 8.66 7 9.32 7 10 C5.906875 9.773125 4.81375 9.54625 3.6875 9.3125 C0.09468727 8.59853617 0.09468727 8.59853617 -1.9375 10.4375 C-2.288125 10.953125 -2.63875 11.46875 -3 12 C-3 11.34 -3 10.68 -3 10 C-3.66 10 -4.32 10 -5 10 C-5.66 7.03 -6.32 4.06 -7 1 C-4.53721199 -0.231394 -2.7204945 -0.07159196 0 0 Z " fill="#7ACF98" transform="translate(30,61)"/>
<path d="M0 0 C0.99 0 1.98 0 3 0 C2.875 1.8125 2.875 1.8125 2 4 C0.03875312 5.07401615 -1.97084231 6.06057514 -4 7 C-6.57776362 8.43323658 -8.95093336 9.86184351 -11 12 C-11.5863982 15.21276343 -11.5863982 15.21276343 -11 18 C-11.99 18.33 -12.98 18.66 -14 19 C-15.21869929 21.50447516 -15.21869929 21.50447516 -16 24 C-17.32 23.67 -18.64 23.34 -20 23 C-19.01 23 -18.02 23 -17 23 C-17.144375 22.01 -17.28875 21.02 -17.4375 20 C-17.42827057 15.43143144 -15.12538782 13.11789659 -12.08203125 9.92578125 C-9.42995239 7.4727327 -6.65263176 5.30381566 -3.69921875 3.2265625 C-1.8647488 1.97106952 -1.8647488 1.97106952 0 0 Z " fill="#031D20" transform="translate(102,91)"/>
<path d="M0 0 C3.29256681 0.56768393 5.04456918 1.24462022 7 4 C7.60983518 6.00435339 8.07889763 8.01232278 8.52734375 10.05859375 C9.0568147 12.23336284 9.87324969 14.06842804 11 16 C11.66 16 12.32 16 13 16 C13 16.99 13 17.98 13 19 C11.02 19.33 9.04 19.66 7 20 C7 19.01 7 18.02 7 17 C6.34 16.67 5.68 16.34 5 16 C5 15.34 5 14.68 5 14 C4.76002029 12.32861189 4.48466197 10.66217425 4.1875 9 C3.96126953 7.6696875 3.96126953 7.6696875 3.73046875 6.3125 C3.15530085 3.65118583 3.15530085 3.65118583 0 2 C0 1.34 0 0.68 0 0 Z " fill="#061C26" transform="translate(63,40)"/>
<path d="M0 0 C0.66 0 1.32 0 2 0 C-0.20746888 9.30290456 -0.20746888 9.30290456 -2 13 C-2.99 13.495 -2.99 13.495 -4 14 C-3.814375 13.05125 -3.62875 12.1025 -3.4375 11.125 C-2.71313368 8.10131207 -2.71313368 8.10131207 -4 6 C-4.66 6 -5.32 6 -6 6 C-6.33 6.66 -6.66 7.32 -7 8 C-9.56634394 8.64158599 -12.13823206 9.02199146 -14.75 9.4375 C-15.86375 9.7159375 -15.86375 9.7159375 -17 10 C-17.33 10.66 -17.66 11.32 -18 12 C-17.38461538 5.47692308 -17.38461538 5.47692308 -15.4375 3.0625 C-14.7259375 2.5365625 -14.7259375 2.5365625 -14 2 C-14 2.99 -14 3.98 -14 5 C-10.04 5 -6.08 5 -2 5 C-1.34 3.35 -0.68 1.7 0 0 Z " fill="#5FC07F" transform="translate(110,71)"/>
<path d="M0 0 C3.86715038 2.12246797 6.74405677 4.52746145 9.8125 7.6875 C10.60269531 8.49574219 11.39289063 9.30398437 12.20703125 10.13671875 C13.09455078 11.05904297 13.09455078 11.05904297 14 12 C13.2884375 12.8971875 13.2884375 12.8971875 12.5625 13.8125 C10.83534256 16.00382924 10.83534256 16.00382924 10 19 C8.125 18.8125 8.125 18.8125 6 18 C4.75 15.4375 4.75 15.4375 4 13 C4.99 13 5.98 13 7 13 C6.67 12.01 6.34 11.02 6 10 C6 9.34 6 8.68 6 8 C4.44294806 6.42159428 4.44294806 6.42159428 2.5 4.875 C1.8503125 4.33617188 1.200625 3.79734375 0.53125 3.2421875 C0.0259375 2.83226562 -0.479375 2.42234375 -1 2 C-0.67 1.34 -0.34 0.68 0 0 Z " fill="#0A1B28" transform="translate(57,61)"/>
<path d="M0 0 C1.32 0 2.64 0 4 0 C4.33 1.98 4.66 3.96 5 6 C7.97 6.495 7.97 6.495 11 7 C8.38058783 8.74627478 6.96175123 9.38722388 4 10 C3.67 9.34 3.34 8.68 3 8 C2.34 8 1.68 8 1 8 C1 14.27 1 20.54 1 27 C0.67 27 0.34 27 0 27 C0 20.07 0 13.14 0 6 C-2.64 6 -5.28 6 -8 6 C-8 5.67 -8 5.34 -8 5 C-6.576875 4.87625 -6.576875 4.87625 -5.125 4.75 C-1.89538209 4.34925077 -1.89538209 4.34925077 -0.625 1.9375 C-0.41875 1.298125 -0.2125 0.65875 0 0 Z " fill="#0B1D33" transform="translate(74,106)"/>
<path d="M0 0 C1.4606285 2.64738916 2 3.89448334 2 7 C-0 9.1875 -0 9.1875 -2 11 C-2.66 10.67 -3.32 10.34 -4 10 C-4 9.34 -4 8.68 -4 8 C-3.34 8 -2.68 8 -2 8 C-2.33 6.02 -2.66 4.04 -3 2 C-2.01 1.34 -1.02 0.68 0 0 Z M-8 8 C-7.67 8.66 -7.34 9.32 -7 10 C-4.97536745 10.65213292 -4.97536745 10.65213292 -3 11 C-3 11.66 -3 12.32 -3 13 C-2.34 13 -1.68 13 -1 13 C-1.33 14.32 -1.66 15.64 -2 17 C-4.9375 16.1875 -4.9375 16.1875 -8 15 C-9.04449911 11.86650268 -8.93423645 11.01031744 -8 8 Z " fill="#091A35" transform="translate(71,84)"/>
<path d="M0 0 C0.99 0.33 1.98 0.66 3 1 C3.33 3.64 3.66 6.28 4 9 C-1.75 11 -1.75 11 -4 11 C-5.67745682 11.63903117 -7.34561387 12.30341637 -9 13 C-9 11.68 -9 10.36 -9 9 C-8.01 9 -7.02 9 -6 9 C-5.67 8.34 -5.34 7.68 -5 7 C-5.66 7 -6.32 7 -7 7 C-6.67 5.35 -6.34 3.7 -6 2 C-4.68 3.65 -3.36 5.3 -2 7 C-1.34 4.69 -0.68 2.38 0 0 Z " fill="#48AC67" transform="translate(120,74)"/>
<path d="M0 0 C-1.63941527 6.6008036 -3.35157882 10.10886541 -9 14 C-9.66 13.67 -10.32 13.34 -11 13 C-10.71125 12.319375 -10.4225 11.63875 -10.125 10.9375 C-8.89513221 7.92022621 -8.89513221 7.92022621 -8.125 4.3125 C-7 1 -7 1 -5.0625 -0.5 C-3 -1 -3 -1 0 0 Z " fill="#60AB7A" transform="translate(97,42)"/>
<path d="M0 0 C0.66 0 1.32 0 2 0 C2 0.66 2 1.32 2 2 C2.639375 2.144375 3.27875 2.28875 3.9375 2.4375 C6 3 6 3 7 4 C7.36978426 5.63802872 7.69668783 7.28587044 8 8.9375 C8.6503519 12.58532599 8.6503519 12.58532599 10 16 C6.14147082 14.42800663 3.67781869 12.17110109 1 9 C-0.375 5.3125 -0.375 5.3125 -1 2 C-0.67 1.34 -0.34 0.68 0 0 Z " fill="#5BAB7A" transform="translate(60,40)"/>
<path d="M0 0 C0.99 0 1.98 0 3 0 C2.57405412 1.44096586 2.13373367 2.87768712 1.6875 4.3125 C1.44386719 5.11300781 1.20023438 5.91351563 0.94921875 6.73828125 C-0.06489486 9.15462601 -0.94733282 10.39006496 -3 12 C-6.1875 12.6875 -6.1875 12.6875 -9 13 C-9.02698189 11.37509046 -9.04638757 9.75005367 -9.0625 8.125 C-9.07410156 7.22007813 -9.08570312 6.31515625 -9.09765625 5.3828125 C-9 3 -9 3 -8 1 C-7.01 1.33 -6.02 1.66 -5 2 C-5 3.98 -5 5.96 -5 8 C-2.27573689 5.64722731 -1.1858237 3.37503669 0 0 Z " fill="#0D2C28" transform="translate(125,102)"/>
<path d="M0 0 C-1.97322935 4.56958375 -3.92236229 7.13463296 -8 10 C-11.93846154 6.67692308 -11.93846154 6.67692308 -12.25 3.25 C-12.1675 2.5075 -12.085 1.765 -12 1 C-8.0186217 -0.3271261 -4.14954773 -0.06915913 0 0 Z " fill="#2B744A" transform="translate(103,88)"/>
<path d="M0 0 C1.85625 0.0309375 1.85625 0.0309375 3.75 0.0625 C3.42 1.3825 3.09 2.7025 2.75 4.0625 C2.07195312 4.09988281 1.39390625 4.13726562 0.6953125 4.17578125 C-5.98066814 4.64735329 -11.92708447 5.88171135 -18.25 8.0625 C-17.25 5.0625 -17.25 5.0625 -15.32421875 3.9296875 C-14.53660156 3.60226563 -13.74898438 3.27484375 -12.9375 2.9375 C-12.15761719 2.60492188 -11.37773438 2.27234375 -10.57421875 1.9296875 C-6.94345623 0.57501644 -3.87935423 -0.0646559 0 0 Z " fill="#A8DCB6" transform="translate(124.25,57.9375)"/>
<path d="M0 0 C0.99 0.33 1.98 0.66 3 1 C3.8403457 4.36138279 4.17718642 6.70387801 3 10 C2.67 10.33 2.34 10.66 2 11 C1.76807135 12.51469448 1.58784762 14.03754562 1.4375 15.5625 C1.31181641 16.80193359 1.31181641 16.80193359 1.18359375 18.06640625 C1.12300781 18.70449219 1.06242187 19.34257813 1 20 C0.67 20 0.34 20 0 20 C0 18.02 0 16.04 0 14 C-0.66 15.98 -1.32 17.96 -2 20 C-2.33 20 -2.66 20 -3 20 C-3 17.03 -3 14.06 -3 11 C-2.67 11.66 -2.34 12.32 -2 13 C-1.34 13 -0.68 13 0 13 C-0.32504259 8.17805357 -0.32504259 8.17805357 -2.5625 4.0625 C-3.036875 3.711875 -3.51125 3.36125 -4 3 C-3.34 2.67 -2.68 2.34 -2 2 C-1.34 1.34 -0.68 0.68 0 0 Z " fill="#030D1E" transform="translate(79,57)"/>
<path d="M0 0 C4.69159716 3.38772897 9.0299782 6.78185183 13 11 C12.01 11.495 12.01 11.495 11 12 C10.34 11.67 9.68 11.34 9 11 C9 10.34 9 9.68 9 9 C7.68 8.67 6.36 8.34 5 8 C4.01 9.485 4.01 9.485 3 11 C1.02 8.69 -0.96 6.38 -3 4 C-2.67 3.34 -2.34 2.68 -2 2 C-1.34 2 -0.68 2 0 2 C0 1.34 0 0.68 0 0 Z " fill="#E2EAE8" transform="translate(55,51)"/>
<path d="M0 0 C6.41481258 -0.42765417 11.88595404 1.14256832 18 3 C18 3.33 18 3.66 18 4 C10.375 5 10.375 5 7 5 C5.453125 5.2784375 5.453125 5.2784375 3.875 5.5625 C2.451875 5.7790625 2.451875 5.7790625 1 6 C0 5 0 5 -0.0625 2.4375 C-0.041875 1.633125 -0.02125 0.82875 0 0 Z " fill="#9EDDB1" transform="translate(23,57)"/>
<path d="M0 0 C3.16115776 1.36983503 3.9927092 1.9890638 6 5 C5.01 5 4.02 5 3 5 C2.67 5.99 2.34 6.98 2 8 C-1.4375 9.75 -1.4375 9.75 -5 11 C-5.66 10.67 -6.32 10.34 -7 10 C-5.33248852 6.05860922 -2.77289351 3.2107188 0 0 Z " fill="#19242F" transform="translate(77,2)"/>
<path d="M0 0 C-0.33 1.32 -0.66 2.64 -1 4 C-7.93 3.505 -7.93 3.505 -15 3 C-13.68 2.34 -12.36 1.68 -11 1 C-11.33 0.01 -11.66 -0.98 -12 -2 C-6.83652287 -3.11369115 -4.27575725 -3.23921004 0 0 Z " fill="#061124" transform="translate(144,141)"/>
<path d="M0 0 C1.9375 0.375 1.9375 0.375 4 1 C5.26026798 3.52053595 4.91874445 4.8542098 4.5625 7.625 C4.46066406 8.44226563 4.35882813 9.25953125 4.25390625 10.1015625 C4.17011719 10.72804688 4.08632813 11.35453125 4 12 C2.35 11.67 0.7 11.34 -1 11 C-2.60080151 6.99799622 -1.29279692 3.95443764 0 0 Z " fill="#64C984" transform="translate(40,104)"/>
<path d="M0 0 C0.33 0.66 0.66 1.32 1 2 C0.67 2.66 0.34 3.32 0 4 C2.97 4.33 5.94 4.66 9 5 C8.01 5.33 7.02 5.66 6 6 C6 6.66 6 7.32 6 8 C1.8794254 9.99785435 -1.45194365 10.17835515 -6 10 C-6 7 -6 7 -4.125 5 C-3.42375 4.34 -2.7225 3.68 -2 3 C-1.34 2.01 -0.68 1.02 0 0 Z " fill="#071228" transform="translate(124,87)"/>
<path d="M0 0 C0 0.66 0 1.32 0 2 C-0.99 2.66 -1.98 3.32 -3 4 C-3.75906853 6.11840256 -3.75906853 6.11840256 -4.125 8.5 C-4.93298969 12.86597938 -4.93298969 12.86597938 -6 15 C-6.99 15 -7.98 15 -9 15 C-9 15.66 -9 16.32 -9 17 C-10.65 17 -12.3 17 -14 17 C-13 15 -13 15 -10.5625 12.875 C-8.07550061 10.084708 -7.60451874 9.24809679 -6.875 5.8125 C-5.80713943 1.15967896 -4.83493602 0 0 0 Z " fill="#052121" transform="translate(93,40)"/>
<path d="M0 0 C-2.27473475 2.27473475 -3.85609152 2.72876687 -6.875 3.75 C-11.64206815 5.62522998 -13.82162029 7.18941146 -16 12 C-16.83817748 14.97747931 -17.4850186 17.95076805 -18 21 C-18.33 21 -18.66 21 -19 21 C-19.18925261 15.60630069 -19.14179115 11.06241544 -17 6 C-11.96395174 1.76514124 -6.59721555 -0.3880715 0 0 Z " fill="#041916" transform="translate(98,32)"/>
<path d="M0 0 C1.32 0.66 2.64 1.32 4 2 C3.67 2.66 3.34 3.32 3 4 C2.34 4 1.68 4 1 4 C0.67 5.98 0.34 7.96 0 10 C-0.66 10 -1.32 10 -2 10 C-2.33 10.66 -2.66 11.32 -3 12 C-3.99 12 -4.98 12 -6 12 C-6.33 11.01 -6.66 10.02 -7 9 C-5.8203125 6.9921875 -5.8203125 6.9921875 -4.125 4.875 C-3.57070312 4.17117187 -3.01640625 3.46734375 -2.4453125 2.7421875 C-1 1 -1 1 0 0 Z M-7 12 C-7 15 -7 15 -7 15 Z " fill="#091626" transform="translate(94,64)"/>
<path d="M0 0 C0.66 0.33 1.32 0.66 2 1 C0.58707905 5.8274799 -1.42974154 9.7162359 -4 14 C-4.33 13.34 -4.66 12.68 -5 12 C-5.66 12 -6.32 12 -7 12 C-6.39288519 7.87161932 -5.12477683 4.59577618 -3 1 C-2.01 0.67 -1.02 0.34 0 0 Z " fill="#192531" transform="translate(141,112)"/>
<path d="M0 0 C1.79068573 2.6860286 2.66055791 4.6626589 3.625 7.6875 C3.88539062 8.49574219 4.14578125 9.30398437 4.4140625 10.13671875 C4.60742188 10.75160156 4.80078125 11.36648437 5 12 C2.525 11.01 2.525 11.01 0 10 C0.33 11.65 0.66 13.3 1 15 C-1.5625 13 -1.5625 13 -4 10 C-4.14963532 7.10883176 -3.63149193 4.86600184 -3 2 C-2.01 2 -1.02 2 0 2 C0 1.34 0 0.68 0 0 Z " fill="#52B371" transform="translate(27,102)"/>
<path d="M0 0 C-0.21056529 9.85828397 -0.21056529 9.85828397 -3.5625 13.125 C-4.366875 13.74375 -5.17125 14.3625 -6 15 C-6.6269791 4.89867004 -6.6269791 4.89867004 -4.125 1.3125 C-2 0 -2 0 0 0 Z " fill="#52A877" transform="translate(87,40)"/>
<path d="M0 0 C0.99 0 1.98 0 3 0 C3.144375 0.9075 3.28875 1.815 3.4375 2.75 C3.88744201 5.85976531 3.88744201 5.85976531 4.75 8.1875 C5 10 5 10 3.6875 11.75 C2 13 2 13 0 13 C-1.25069801 10.49860398 -1.13302467 8.72607309 -1.125 5.9375 C-1.12757812 5.03902344 -1.13015625 4.14054687 -1.1328125 3.21484375 C-1 1 -1 1 0 0 Z " fill="#6AC88F" transform="translate(112,104)"/>
<path d="M0 0 C0.33 0 0.66 0 1 0 C1.66 3.3 2.32 6.6 3 10 C2.01 9.67 1.02 9.34 0 9 C-0.33 9.66 -0.66 10.32 -1 11 C-1.33 9.68 -1.66 8.36 -2 7 C-6.29 7 -10.58 7 -15 7 C-15.33 7.66 -15.66 8.32 -16 9 C-16 8.01 -16 7.02 -16 6 C-15.15695313 5.97421875 -14.31390625 5.9484375 -13.4453125 5.921875 C-12.34960938 5.86515625 -11.25390625 5.8084375 -10.125 5.75 C-9.03445312 5.70359375 -7.94390625 5.6571875 -6.8203125 5.609375 C-3.8667935 5.31153872 -3.8667935 5.31153872 -2.6171875 2.953125 C-2.41351563 2.30859375 -2.20984375 1.6640625 -2 1 C-2 1.66 -2 2.32 -2 3 C-1.34 3 -0.68 3 0 3 C0 2.01 0 1.02 0 0 Z " fill="#152530" transform="translate(58,39)"/>
<path d="M0 0 C1.32 0 2.64 0 4 0 C4.66 0.66 5.32 1.32 6 2 C6.33 2 6.66 2 7 2 C7.05422947 3.4370809 7.09289723 4.87475462 7.125 6.3125 C7.14820312 7.11300781 7.17140625 7.91351563 7.1953125 8.73828125 C7 11 7 11 5 14 C4.34 14 3.68 14 3 14 C3 10.37 3 6.74 3 3 C1.68 2.67 0.36 2.34 -1 2 C-0.67 1.34 -0.34 0.68 0 0 Z " fill="#7DD29E" transform="translate(76,14)"/>
<path d="M0 0 C2.64 0 5.28 0 8 0 C8 1.65 8 3.3 8 5 C7.05125 5.28875 6.1025 5.5775 5.125 5.875 C1.94788422 6.76825109 1.94788422 6.76825109 0 9 C0 6.03 0 3.06 0 0 Z " fill="#5A7FA5" transform="translate(66,112)"/>
<path d="M0 0 C0.66 0.33 1.32 0.66 2 1 C1.38125 1.7425 0.7625 2.485 0.125 3.25 C-3.25745102 7.62728955 -4.55980566 11.65070674 -6 17 C-6.66 16.67 -7.32 16.34 -8 16 C-7.04123711 6.57216495 -7.04123711 6.57216495 -5 3 C-2.5 1.125 -2.5 1.125 0 0 Z " fill="#011A18" transform="translate(86,96)"/>
<path d="M0 0 C0.99 0.99 1.98 1.98 3 3 C2.01 3.495 2.01 3.495 1 4 C1.33 5.32 1.66 6.64 2 8 C-0.70879335 9.35439668 -3.00933268 9.06501451 -6 9 C-6 6 -6 6 -4.6875 4.39453125 C-4.130625 3.87246094 -3.57375 3.35039063 -3 2.8125 C-2.443125 2.28269531 -1.88625 1.75289063 -1.3125 1.20703125 C-0.6628125 0.60955078 -0.6628125 0.60955078 0 0 Z " fill="#2C6A4A" transform="translate(123,112)"/>
<path d="M0 0 C0.28875 0.639375 0.5775 1.27875 0.875 1.9375 C1.82823451 4.15206079 1.82823451 4.15206079 4 5 C4 5.99 4 6.98 4 8 C-2.4 11.07692308 -2.4 11.07692308 -5.4375 10.6875 C-5.953125 10.460625 -6.46875 10.23375 -7 10 C-6.21625 9.0925 -5.4325 8.185 -4.625 7.25 C-2.69947504 4.94809764 -1.17794259 2.78422793 0 0 Z " fill="#2F734B" transform="translate(110,85)"/>
<path d="M0 0 C0.99 0.33 1.98 0.66 3 1 C2.01 1.495 2.01 1.495 1 2 C1 3.32 1 4.64 1 6 C-1.75 8.8125 -1.75 8.8125 -5 11 C-7.375 10.8125 -7.375 10.8125 -9 10 C-8.34 9.01 -7.68 8.02 -7 7 C-5.68 7 -4.36 7 -3 7 C-3.33 5.68 -3.66 4.36 -4 3 C-2.1875 1.4375 -2.1875 1.4375 0 0 Z " fill="#09142B" transform="translate(101,95)"/>
<path d="M0 0 C2.31 0 4.62 0 7 0 C7.33 1.32 7.66 2.64 8 4 C4.78817851 5.90608098 2.46117397 6.22266247 -1.25 6.125 C-2.14203125 6.10695312 -3.0340625 6.08890625 -3.953125 6.0703125 C-4.96632813 6.03550781 -4.96632813 6.03550781 -6 6 C-3 4 -3 4 -1 3 C-0.67 2.01 -0.34 1.02 0 0 Z " fill="#101B2B" transform="translate(125,138)"/>
<path d="M0 0 C5.02712864 1.28600965 7.5436849 3.17002922 11 7 C11.8971875 7.7734375 11.8971875 7.7734375 12.8125 8.5625 C14 10 14 10 14 14 C10.57757553 12.85919184 10.11925201 12.117411 8.125 9.25 C5.65078207 5.81083708 3.08127283 2.90002148 0 0 Z " fill="#022214" transform="translate(29,62)"/>
<path d="M0 0 C1.65 0 3.3 0 5 0 C5.375 2.75 5.375 2.75 5 6 C2 8.375 2 8.375 -1 10 C-2.23076923 4.58461538 -2.23076923 4.58461538 -1.0625 1.625 C-0.5365625 0.820625 -0.5365625 0.820625 0 0 Z " fill="#172A3C" transform="translate(75,34)"/>
<path d="M0 0 C0.66 1.32 1.32 2.64 2 4 C0.35 5.32 -1.3 6.64 -3 8 C-2.67 7.01 -2.34 6.02 -2 5 C-4.31 4.67 -6.62 4.34 -9 4 C-9.33 4.66 -9.66 5.32 -10 6 C-10.33 5.34 -10.66 4.68 -11 4 C-10.67 3.01 -10.34 2.02 -10 1 C-7.98177083 1.03255208 -5.96354167 1.06510417 -3.9453125 1.09765625 C-1.91814596 1.12649242 -1.91814596 1.12649242 0 0 Z " fill="#3F965E" transform="translate(104,84)"/>
<path d="M0 0 C1.4540625 0.0309375 1.4540625 0.0309375 2.9375 0.0625 C4.1452558 3.68576739 3.48061128 4.70396369 1.9375 8.0625 C-0.5 7.375 -0.5 7.375 -3.0625 6.0625 C-3.9375 3.5 -3.9375 3.5 -4.0625 1.0625 C-3.0625 0.0625 -3.0625 0.0625 0 0 Z " fill="#2B7743" transform="translate(60.0625,88.9375)"/>
<path d="M0 0 C0.66 0.33 1.32 0.66 2 1 C1.67 2.32 1.34 3.64 1 5 C0.01 5 -0.98 5 -2 5 C-2.33 5.66 -2.66 6.32 -3 7 C-5.31 6.67 -7.62 6.34 -10 6 C-9.4375 4.0625 -9.4375 4.0625 -8 2 C-4.4375 1.3125 -4.4375 1.3125 -1 1 C-0.67 0.67 -0.34 0.34 0 0 Z " fill="#76D38D" transform="translate(112,66)"/>
<path d="M0 0 C1.79258558 0.08693141 3.58415144 0.19510504 5.375 0.3125 C6.87160156 0.39951172 6.87160156 0.39951172 8.3984375 0.48828125 C9.25695313 0.65714844 10.11546875 0.82601562 11 1 C11.66 1.99 12.32 2.98 13 4 C6.77373847 6.31958763 6.77373847 6.31958763 3.125 4.8125 C1 3 1 3 0 0 Z " fill="#8ADD9B" transform="translate(32,61)"/>
<path d="M0 0 C0.99 0 1.98 0 3 0 C2.875 1.8125 2.875 1.8125 2 4 C0.04072167 5.07760308 -1.97186629 6.05836649 -4 7 C-7.04749835 8.93074407 -10.0261704 10.95797034 -13 13 C-11.53287603 9.38003107 -9.6188429 7.67362772 -6.5 5.375 C-4.18118549 3.65094636 -2.04438858 2.04438858 0 0 Z " fill="#022214" transform="translate(102,91)"/>
<path d="M0 0 C-0.33 1.32 -0.66 2.64 -1 4 C-5.29 4.66 -9.58 5.32 -14 6 C-14.33 5.34 -14.66 4.68 -15 4 C-9.76557329 1.6847728 -5.79345971 0 0 0 Z " fill="#56B971" transform="translate(108,77)"/>
<path d="M0 0 C0.66 0.99 1.32 1.98 2 3 C1.01 3.66 0.02 4.32 -1 5 C-1 5.99 -1 6.98 -1 8 C-1.99 8.66 -2.98 9.32 -4 10 C-6.6875 9.125 -6.6875 9.125 -9 8 C-6.14723863 5.06799526 -3.34920216 2.35684596 0 0 Z " fill="#EDF2F3" transform="translate(92,58)"/>
<path d="M0 0 C0 0.66 0 1.32 0 2 C-1.98 2 -3.96 2 -6 2 C-6 2.99 -6 3.98 -6 5 C-7.65 5.33 -9.3 5.66 -11 6 C-11.625 4.125 -11.625 4.125 -12 2 C-9.74099507 -0.25900493 -9.05816925 -0.34458029 -6 -0.6875 C-4.948125 -0.81705078 -4.948125 -0.81705078 -3.875 -0.94921875 C-2 -1 -2 -1 0 0 Z " fill="#1F2733" transform="translate(24,139)"/>
<path d="M0 0 C3.3 0 6.6 0 10 0 C10 0.99 10 1.98 10 3 C8.02 3.33 6.04 3.66 4 4 C4.33 5.32 4.66 6.64 5 8 C3.0625 7.375 3.0625 7.375 1 6 C0.25 2.875 0.25 2.875 0 0 Z " fill="#358856" transform="translate(53,86)"/>
<path d="M0 0 C0.53625 0.2475 1.0725 0.495 1.625 0.75 C0.965 0.75 0.305 0.75 -0.375 0.75 C-0.375 2.07 -0.375 3.39 -0.375 4.75 C-2.025 5.41 -3.675 6.07 -5.375 6.75 C-5.375 6.09 -5.375 5.43 -5.375 4.75 C-7.025 6.07 -8.675 7.39 -10.375 8.75 C-9.37684314 5.15663529 -8.42674542 3.79274621 -5.5 1.375 C-2.375 -0.25 -2.375 -0.25 0 0 Z " fill="#96D4A9" transform="translate(92.375,35.25)"/>
<path d="M0 0 C2.475 0.99 2.475 0.99 5 2 C5.3125 4.3125 5.3125 4.3125 5 7 C2.5 8.8125 2.5 8.8125 0 10 C0 9.34 0 8.68 0 8 C-0.66 7.67 -1.32 7.34 -2 7 C-1.34 6.34 -0.68 5.68 0 5 C-0.33 4.01 -0.66 3.02 -1 2 C-0.67 1.34 -0.34 0.68 0 0 Z " fill="#449662" transform="translate(125,109)"/>
<path d="M0 0 C0.66 0 1.32 0 2 0 C1.67 0.886875 1.34 1.77375 1 2.6875 C-0.43065813 7.48267139 -0.0108649 12.25752197 0.22265625 17.20703125 C0.14917969 18.12871094 0.07570313 19.05039063 0 20 C-0.99 20.66 -1.98 21.32 -3 22 C-3 20.68 -3 19.36 -3 18 C-3.66 17.34 -4.32 16.68 -5 16 C-4.34 16 -3.68 16 -3 16 C-3.03480469 15.34773438 -3.06960937 14.69546875 -3.10546875 14.0234375 C-3.27610432 8.51434628 -3.0363889 4.80761576 0 0 Z " fill="#001714" transform="translate(92,74)"/>
<path d="M0 0 C0 1.98 0 3.96 0 6 C-1.32 6 -2.64 6 -4 6 C-4 5.34 -4 4.68 -4 4 C-4.66 4 -5.32 4 -6 4 C-6.33 5.65 -6.66 7.3 -7 9 C-7.33 9 -7.66 9 -8 9 C-7.67 6.36 -7.34 3.72 -7 1 C-4.50935112 0.31292445 -2.62113708 0 0 0 Z " fill="#4B6994" transform="translate(74,117)"/>
<path d="M0 0 C0.99 0 1.98 0 3 0 C3.33 3.3 3.66 6.6 4 10 C3.01 10.495 3.01 10.495 2 11 C2 12.98 2 14.96 2 17 C1.34 17 0.68 17 0 17 C0 11.39 0 5.78 0 0 Z " fill="#041225" transform="translate(67,75)"/>
<path d="M0 0 C0.66 0.33 1.32 0.66 2 1 C-0.31 4.96 -2.62 8.92 -5 13 C-5.66 12.67 -6.32 12.34 -7 12 C-6.4685789 7.48292068 -4.70984317 4.61312423 -2 1 C-1.34 0.67 -0.68 0.34 0 0 Z " fill="#052312" transform="translate(118,67)"/>
<path d="M0 0 C0.66 0.33 1.32 0.66 2 1 C2.67118579 6.20168989 0.52453564 10.5735338 -2 15 C-4.25 17.0625 -4.25 17.0625 -6 18 C-5.625 16.0625 -5.625 16.0625 -5 14 C-4.34 13.67 -3.68 13.34 -3 13 C-2.34786708 10.97536745 -2.34786708 10.97536745 -2 9 C-2.66 8.67 -3.32 8.34 -4 8 C-3.34 7.05125 -2.68 6.1025 -2 5.125 C0.17968457 2.33761045 0.17968457 2.33761045 0 0 Z " fill="#58B679" transform="translate(126,70)"/>
<path d="M0 0 C2.475 0.99 2.475 0.99 5 2 C5 2.66 5 3.32 5 4 C5.99 4.33 6.98 4.66 8 5 C8 6.98 8 8.96 8 11 C1.29540481 5.9059081 1.29540481 5.9059081 0.0625 2.125 C0.041875 1.42375 0.02125 0.7225 0 0 Z " fill="#FAFBFC" transform="translate(59,58)"/>
<path d="M0 0 C3.3 0.99 6.6 1.98 10 3 C10 3.99 10 4.98 10 6 C7.36 5.34 4.72 4.68 2 4 C2 5.65 2 7.3 2 9 C-0.29013653 5.5647952 -0.17842973 4.014669 0 0 Z " fill="#96CBAC" transform="translate(58,33)"/>
<path d="M0 0 C3 1 3 1 4.203125 2.70703125 C4.54859375 3.40183594 4.8940625 4.09664063 5.25 4.8125 C5.60578125 5.49957031 5.9615625 6.18664062 6.328125 6.89453125 C7.11193544 9.35077442 6.84119973 10.60042386 6 13 C2.47612355 8.88881081 0 5.53491888 0 0 Z " fill="#042611" transform="translate(28,102)"/>
<path d="M0 0 C0.66 0.33 1.32 0.66 2 1 C2 2.65 2 4.3 2 6 C1.67 5.34 1.34 4.68 1 4 C1 4.99 1 5.98 1 7 C0.67 7.99 0.34 8.98 0 10 C-2.31 9.01 -4.62 8.02 -7 7 C-5.68 6.67 -4.36 6.34 -3 6 C-3.33 4.68 -3.66 3.36 -4 2 C-3.01 2.33 -2.02 2.66 -1 3 C-0.67 2.01 -0.34 1.02 0 0 Z " fill="#0F2327" transform="translate(51,55)"/>
<path d="M0 0 C4.55737263 0.43820891 7.57653445 0.85041169 11 4 C10.67 4.99 10.34 5.98 10 7 C9.01 7 8.02 7 7 7 C6.67 6.34 6.34 5.68 6 5 C5.01 5 4.02 5 3 5 C1.3125 3.625 1.3125 3.625 0 2 C0 1.34 0 0.68 0 0 Z " fill="#84D4A6" transform="translate(32,99)"/>
<path d="M0 0 C0.99 0.33 1.98 0.66 3 1 C2.67 2.65 2.34 4.3 2 6 C2.66 6.33 3.32 6.66 4 7 C2.625 8.5 2.625 8.5 1 10 C0.34 10 -0.32 10 -1 10 C-1.12375 8.865625 -1.2475 7.73125 -1.375 6.5625 C-1.58125 5.386875 -1.7875 4.21125 -2 3 C-2.66 2.67 -3.32 2.34 -4 2 C-2.68 2 -1.36 2 0 2 C0 1.34 0 0.68 0 0 Z " fill="#0D1B28" transform="translate(84,55)"/>
<path d="M0 0 C-0.33 1.32 -0.66 2.64 -1 4 C-0.01 4.33 0.98 4.66 2 5 C-0.97 7.475 -0.97 7.475 -4 10 C-4.66 7.69 -5.32 5.38 -6 3 C-3.375 0 -3.375 0 0 0 Z " fill="#DEE4E4" transform="translate(99,54)"/>
<path d="M0 0 C0.66 0 1.32 0 2 0 C2 3.96 2 7.92 2 12 C2.66 12 3.32 12 4 12 C4 12.66 4 13.32 4 14 C3.01 14.33 2.02 14.66 1 15 C0.01 14.01 -0.98 13.02 -2 12 C-1.34 12 -0.68 12 0 12 C0 8.04 0 4.08 0 0 Z " fill="#032012" transform="translate(77,17)"/>
<path d="M0 0 C2.475 0.99 2.475 0.99 5 2 C5 2.66 5 3.32 5 4 C5.66 4 6.32 4 7 4 C7.33 4.99 7.66 5.98 8 7 C7.01 7.99 6.02 8.98 5 10 C2.35534962 6.8745041 1.15585285 3.91211733 0 0 Z " fill="#222D39" transform="translate(13,113)"/>
<path d="M0 0 C1.98 0.495 1.98 0.495 4 1 C4.33 2.32 4.66 3.64 5 5 C4.01 5 3.02 5 2 5 C2 6.98 2 8.96 2 11 C1.34 10.67 0.68 10.34 0 10 C-1.29411765 2.58823529 -1.29411765 2.58823529 0 0 Z " fill="#6EC692" transform="translate(22,99)"/>
<path d="M0 0 C0.33 0.99 0.66 1.98 1 3 C4.00847418 4.22520264 4.00847418 4.22520264 7 5 C6.67 6.32 6.34 7.64 6 9 C3.0625 8.1875 3.0625 8.1875 0 7 C-1.04449911 3.86650268 -0.93423645 3.01031744 0 0 Z " fill="#152F42" transform="translate(63,92)"/>
<path d="M0 0 C0.66 0 1.32 0 2 0 C2.1875 2.375 2.1875 2.375 2 5 C1.01 5.66 0.02 6.32 -1 7 C-1.309375 7.845625 -1.61875 8.69125 -1.9375 9.5625 C-2.288125 10.366875 -2.63875 11.17125 -3 12 C-4.32 12.33 -5.64 12.66 -7 13 C-3.535 6.565 -3.535 6.565 0 0 Z " fill="#04241E" transform="translate(130,73)"/>
<path d="M0 0 C0.66 1.32 1.32 2.64 2 4 C1.34 4 0.68 4 0 4 C-0.15149298 7.62885324 -0.15149298 7.62885324 1 11 C0.01 12.485 0.01 12.485 -1 14 C-2.5625 12.3125 -2.5625 12.3125 -4 10 C-3.79588991 6.01985316 -2.15995601 3.28688958 0 0 Z " fill="#53AA79" transform="translate(119,68)"/>
<path d="M0 0 C5.75 1.875 5.75 1.875 8 3 C8.33 3.99 8.66 4.98 9 6 C9.99 6.66 10.98 7.32 12 8 C12 8.66 12 9.32 12 10 C8.15114044 9.44520943 6.40739482 7.75581685 3.75 5 C3.04359375 4.278125 2.3371875 3.55625 1.609375 2.8125 C0 1 0 1 0 0 Z " fill="#011B17" transform="translate(52,64)"/>
<path d="M0 0 C2.25 -0.25 2.25 -0.25 5 0 C7.3125 1.875 7.3125 1.875 9 4 C9 4.66 9 5.32 9 6 C2.25 5.25 2.25 5.25 0 3 C0 2.01 0 1.02 0 0 Z " fill="#6FC591" transform="translate(28,65)"/>
<path d="M0 0 C1.32 0 2.64 0 4 0 C4.33 1.32 4.66 2.64 5 4 C2.03 6.475 2.03 6.475 -1 9 C-1.66 8.67 -2.32 8.34 -3 8 C-2.01 5.36 -1.02 2.72 0 0 Z " fill="#357654" transform="translate(89,47)"/>
<path d="M0 0 C2.63662075 0.85690174 3.75689748 1.70242853 5.5 3.8125 C4.5 4.8125 4.5 4.8125 1.6875 5.0625 C-1.77714111 4.79076344 -2.99415104 4.12559135 -5.5 1.8125 C-2.5 -0.1875 -2.5 -0.1875 0 0 Z " fill="#2F6C4F" transform="translate(34.5,116.1875)"/>
<path d="M0 0 C2.31 0 4.62 0 7 0 C7 2.97 7 5.94 7 9 C6.01 8.67 5.02 8.34 4 8 C3.896875 7.05125 3.79375 6.1025 3.6875 5.125 C3.31460705 1.70892499 3.31460705 1.70892499 0 0 Z " fill="#73CA90" transform="translate(127,97)"/>
<path d="M0 0 C6.625 -0.125 6.625 -0.125 10 1 C10 1.99 10 2.98 10 4 C8.35 4.66 6.7 5.32 5 6 C4.67 5.01 4.34 4.02 4 3 C3.01 2.67 2.02 2.34 1 2 C0.67 2.66 0.34 3.32 0 4 C0 2.68 0 1.36 0 0 Z " fill="#8FCAA2" transform="translate(21,97)"/>
<path d="M0 0 C0.99 0 1.98 0 3 0 C2.57576756 1.46224799 2.13509755 2.91973412 1.6875 4.375 C1.44386719 5.18710938 1.20023437 5.99921875 0.94921875 6.8359375 C0 9 0 9 -3 11 C-3 6.32674845 -1.92757363 4.17640953 0 0 Z " fill="#03220D" transform="translate(125,102)"/>
<path d="M0 0 C0 0.99 0 1.98 0 3 C-0.7425 2.979375 -1.485 2.95875 -2.25 2.9375 C-4.70462279 2.99328688 -6.66109261 3.3069904 -9 4 C-9 2.68 -9 1.36 -9 0 C-5.93109813 -1.53445094 -3.29905734 -0.54984289 0 0 Z " fill="#53BA71" transform="translate(57,78)"/>
<path d="M0 0 C1.2065625 0.0309375 1.2065625 0.0309375 2.4375 0.0625 C4.85435712 4.29199995 5.78583144 7.18585991 5.4375 12.0625 C3.4375 8.3125 3.4375 8.3125 3.4375 6.0625 C2.7775 6.0625 2.1175 6.0625 1.4375 6.0625 C-0.22916667 4.39583333 -1.89583333 2.72916667 -3.5625 1.0625 C-2.5625 0.0625 -2.5625 0.0625 0 0 Z " fill="#6DC08A" transform="translate(58.5625,72.9375)"/>
<path d="M0 0 C0.33 0 0.66 0 1 0 C1 2.97 1 5.94 1 9 C-5.875 3.25 -5.875 3.25 -7 1 C-5.824375 1.309375 -5.824375 1.309375 -4.625 1.625 C-3.75875 1.74875 -2.8925 1.8725 -2 2 C-1.34 1.34 -0.68 0.68 0 0 Z " fill="#F9FCFC" transform="translate(74,68)"/>
<path d="M0 0 C1.875 0.6875 1.875 0.6875 4 2 C4.72159424 3.64363134 5.39351421 5.31050386 6 7 C6.66 7.33 7.32 7.66 8 8 C8 9.98 8 11.96 8 14 C0.69230769 4.5 0.69230769 4.5 0 0 Z " fill="#73BF95" transform="translate(39,66)"/>
<path d="M0 0 C4.875 4.75 4.875 4.75 6 7 C2.7 6.34 -0.6 5.68 -4 5 C-4 4.01 -4 3.02 -4 2 C-2.68 1.34 -1.36 0.68 0 0 Z " fill="#2A614A" transform="translate(47,89)"/>
<path d="M0 0 C0.66 0.66 1.32 1.32 2 2 C1.625 4.125 1.625 4.125 1 6 C-1.375 6.625 -1.375 6.625 -4 7 C-4.66 6.34 -5.32 5.68 -6 5 C-5.625 2.875 -5.625 2.875 -5 1 C-4.34 1 -3.68 1 -3 1 C-3 1.99 -3 2.98 -3 4 C-2.34 4 -1.68 4 -1 4 C-0.67 2.68 -0.34 1.36 0 0 Z " fill="#428F5B" transform="translate(39,73)"/>
<path d="M0 0 C-5.75 3 -5.75 3 -8 3 C-8.33 3.66 -8.66 4.32 -9 5 C-11.31 5 -13.62 5 -16 5 C-13.74113183 2.43080808 -11.79979195 1.31999869 -8.5625 0.25 C-7.80066406 -0.01296875 -7.03882812 -0.2759375 -6.25390625 -0.546875 C-3.79486911 -1.04123949 -2.35327446 -0.79335904 0 0 Z " fill="#8DDD9C" transform="translate(120,63)"/>
<path d="M0 0 C2.97 0 5.94 0 9 0 C8.67 1.32 8.34 2.64 8 4 C5.36 4 2.72 4 0 4 C0 2.68 0 1.36 0 0 Z " fill="#324F74" transform="translate(81,129)"/>
<path d="M0 0 C0.66 0.99 1.32 1.98 2 3 C1.125 5.6875 1.125 5.6875 0 8 C-0.99 8 -1.98 8 -3 8 C-3 5.69 -3 3.38 -3 1 C-2.01 0.67 -1.02 0.34 0 0 Z " fill="#75C59B" transform="translate(122,102)"/>
<path d="M0 0 C2.23551759 3.35327639 2.17283528 3.90743657 1.625 7.6875 C1.51414062 8.49574219 1.40328125 9.30398437 1.2890625 10.13671875 C1.19367188 10.75160156 1.09828125 11.36648437 1 12 C0.01 11.67 -0.98 11.34 -2 11 C-2 10.34 -2 9.68 -2 9 C-2.99 8.67 -3.98 8.34 -5 8 C-3.66666667 6.66666667 -2.33333333 5.33333333 -1 4 C-0.3574765 1.93125966 -0.3574765 1.93125966 0 0 Z " fill="#0B1E37" transform="translate(84,84)"/>
<path d="M0 0 C0.99 0.99 1.98 1.98 3 3 C2.67 3.66 2.34 4.32 2 5 C2.99 5.33 3.98 5.66 5 6 C4.34 6.66 3.68 7.32 3 8 C2.67 8.66 2.34 9.32 2 10 C0.68 8.35 -0.64 6.7 -2 5 C-1.34 3.35 -0.68 1.7 0 0 Z " fill="#58B57E" transform="translate(32,77)"/>
<path d="M0 0 C0.66 0 1.32 0 2 0 C1.67 2.97 1.34 5.94 1 9 C-0.65 8.67 -2.3 8.34 -4 8 C-4.33 6.68 -4.66 5.36 -5 4 C-2.525 4.99 -2.525 4.99 0 6 C0 4.02 0 2.04 0 0 Z " fill="#63AE82" transform="translate(43,107)"/>
<path d="M0 0 C2.64 0 5.28 0 8 0 C5.53846154 5.66153846 5.53846154 5.66153846 2.8125 7.375 C1.9153125 7.684375 1.9153125 7.684375 1 8 C1.66 6.35 2.32 4.7 3 3 C2.01 3 1.02 3 0 3 C0 2.01 0 1.02 0 0 Z " fill="#358652" transform="translate(95,88)"/>
<path d="M0 0 C2.125 0.375 2.125 0.375 4 1 C1.42215154 3.64752004 -0.91648098 5.94432065 -4 8 C-4.66 7.34 -5.32 6.68 -6 6 C-5.34 6 -4.68 6 -4 6 C-3.71125 5.38125 -3.4225 4.7625 -3.125 4.125 C-2 2 -2 2 0 0 Z " fill="#141828" transform="translate(95,51)"/>
<path d="M0 0 C0.66 0 1.32 0 2 0 C3.125 4.75 3.125 4.75 2 7 C5.465 6.505 5.465 6.505 9 6 C6.23776722 8.76223278 3.79293383 8.57856291 0 9 C0 6.03 0 3.06 0 0 Z " fill="#011217" transform="translate(98,33)"/>
<path d="M0 0 C1.625 1.625 1.625 1.625 3 4 C2.4375 7.1875 2.4375 7.1875 1 10 C-1.125 10.875 -1.125 10.875 -3 11 C-3 9.68 -3 8.36 -3 7 C-2.01 7 -1.02 7 0 7 C0.33 6.34 0.66 5.68 1 5 C0.34 5 -0.32 5 -1 5 C-0.67 3.35 -0.34 1.7 0 0 Z " fill="#448969" transform="translate(114,76)"/>
<path d="M0 0 C2 1.625 2 1.625 4 4 C4.25 7.25 4.25 7.25 4 10 C1.4375 7.8125 1.4375 7.8125 -1 5 C-0.8125 2.1875 -0.8125 2.1875 0 0 Z " fill="#4B9F70" transform="translate(71,45)"/>
<path d="M0 0 C2.97 0 5.94 0 9 0 C9 0.99 9 1.98 9 3 C6.03 3 3.06 3 0 3 C0 2.01 0 1.02 0 0 Z " fill="#94AFD5" transform="translate(81,119)"/>
<path d="M0 0 C0.99 0.33 1.98 0.66 3 1 C2.75 3.375 2.75 3.375 2 6 C-0.0625 7.3125 -0.0625 7.3125 -2 8 C-2.33 6.68 -2.66 5.36 -3 4 C-2.01 3.67 -1.02 3.34 0 3 C0 2.01 0 1.02 0 0 Z " fill="#5DAE82" transform="translate(114,109)"/>
<path d="M0 0 C2.97 0.495 2.97 0.495 6 1 C5.01 1.495 5.01 1.495 4 2 C4.66 2.33 5.32 2.66 6 3 C6 4.65 6 6.3 6 8 C5.01 8 4.02 8 3 8 C2.01 5.36 1.02 2.72 0 0 Z " fill="#0B2126" transform="translate(109,94)"/>
<path d="M0 0 C0.66 0.66 1.32 1.32 2 2 C2.99 2 3.98 2 5 2 C3.79618552 4.49361571 2.54571278 6.68143083 1 9 C0.34 9 -0.32 9 -1 9 C-0.67 6.03 -0.34 3.06 0 0 Z " fill="#3F8E5E" transform="translate(39,82)"/>
<path d="M0 0 C1.32 0.66 2.64 1.32 4 2 C3.67 2.66 3.34 3.32 3 4 C2.34 4 1.68 4 1 4 C1 4.66 1 5.32 1 6 C-0.65 6 -2.3 6 -4 6 C-2.84826645 3.53199953 -1.95216435 1.95216435 0 0 Z " fill="#1B202F" transform="translate(94,64)"/>
<path d="M0 0 C0.33 1.32 0.66 2.64 1 4 C1.99 3.67 2.98 3.34 4 3 C3.67 3.99 3.34 4.98 3 6 C0.69 5.67 -1.62 5.34 -4 5 C-3.67 4.01 -3.34 3.02 -3 2 C-3.66 1.67 -4.32 1.34 -5 1 C-3.35 0.67 -1.7 0.34 0 0 Z " fill="#0E1F32" transform="translate(86,138)"/>
<path d="M0 0 C2.64 0 5.28 0 8 0 C8 0.99 8 1.98 8 3 C5.69 3 3.38 3 1 3 C0.67 3.66 0.34 4.32 0 5 C0 3.35 0 1.7 0 0 Z " fill="#4F72A2" transform="translate(82,122)"/>
<path d="M0 0 C0.99 0 1.98 0 3 0 C3.33 0.99 3.66 1.98 4 3 C3.01 3 2.02 3 1 3 C0.67 5.64 0.34 8.28 0 11 C-0.33 11 -0.66 11 -1 11 C-1.54372951 7.94152152 -2 5.11227195 -2 2 C-1.34 1.34 -0.68 0.68 0 0 Z " fill="#8ED9AB" transform="translate(116,100)"/>
<path d="M0 0 C1.12377697 3.30435084 0.89554742 5.0506862 -0.4375 8.25 C-0.72496094 8.95640625 -1.01242188 9.6628125 -1.30859375 10.390625 C-1.53675781 10.92171875 -1.76492187 11.4528125 -2 12 C-2.33 12 -2.66 12 -3 12 C-3.36923077 4.61538462 -3.36923077 4.61538462 -1.5 1.5 C-1.005 1.005 -0.51 0.51 0 0 Z " fill="#62789C" transform="translate(84,80)"/>
<path d="M0 0 C0 3.01490557 -0.51952735 4.86864114 -1.5 7.6875 C-1.91765625 8.89986328 -1.91765625 8.89986328 -2.34375 10.13671875 C-2.5603125 10.75160156 -2.776875 11.36648437 -3 12 C-5.15116049 9.84883951 -5.72549364 8.98035482 -6 6 C-4.78515625 4.296875 -4.78515625 4.296875 -3.0625 2.75 C-2.21365234 1.96882813 -2.21365234 1.96882813 -1.34765625 1.171875 C-0.90292969 0.78515625 -0.45820312 0.3984375 0 0 Z " fill="#202839" transform="translate(89,69)"/>
<path d="M0 0 C2.64 0 5.28 0 8 0 C7.67 1.32 7.34 2.64 7 4 C4.69 4 2.38 4 0 4 C0 2.66666667 0 1.33333333 0 0 Z " fill="#9FDBAD" transform="translate(120,58)"/>
<path d="M0 0 C5.21979128 -0.1799928 9.07262981 0.02905192 14 2 C14 2.33 14 2.66 14 3 C4.58997722 3.3690205 4.58997722 3.3690205 0 1 C0 0.67 0 0.34 0 0 Z " fill="#B2E2C1" transform="translate(27,58)"/>
<path d="M0 0 C0.33 0 0.66 0 1 0 C1.125 5.75 1.125 5.75 0 8 C-2.97 7.505 -2.97 7.505 -6 7 C-5.02433888 5.83040013 -4.044375 4.66438823 -3.0625 3.5 C-2.51722656 2.8503125 -1.97195312 2.200625 -1.41015625 1.53125 C-0.71212891 0.77328125 -0.71212891 0.77328125 0 0 Z " fill="#060E18" transform="translate(106,53)"/>
<path d="M0 0 C0 0.66 0 1.32 0 2 C-0.99 2.66 -1.98 3.32 -3 4 C-3.78988145 5.95385067 -3.78988145 5.95385067 -4.1875 8.125 C-4.455625 9.40375 -4.72375 10.6825 -5 12 C-5.92389881 8.55773184 -6.31142059 5.58133677 -6 2 C-3 0 -3 0 0 0 Z " fill="#032412" transform="translate(93,40)"/>
<path d="M0 0 C-0.33 2.64 -0.66 5.28 -1 8 C-1.66 7.34 -2.32 6.68 -3 6 C-3.99 6.99 -4.98 7.98 -6 9 C-6.25 6.75 -6.25 6.75 -6 4 C-2.75675676 0 -2.75675676 0 0 0 Z " fill="#71C18E" transform="translate(87,40)"/>
<path d="M0 0 C0.66 0.66 1.32 1.32 2 2 C3.31747324 2.69748583 4.64914193 3.36959957 6 4 C4.02 4.66 2.04 5.32 0 6 C-0.33 8.31 -0.66 10.62 -1 13 C-1.33 13 -1.66 13 -2 13 C-2.05416188 11.39620659 -2.09286638 9.79188594 -2.125 8.1875 C-2.14820312 7.29417969 -2.17140625 6.40085937 -2.1953125 5.48046875 C-2 3 -2 3 0 0 Z " fill="#2A4141" transform="translate(85,10)"/>
<path d="M0 0 C-0.33 0.66 -0.66 1.32 -1 2 C-3.92824652 2.97608217 -5.95613276 3.08226668 -9 3 C-9 2.01 -9 1.02 -9 0 C-3.375 -1.125 -3.375 -1.125 0 0 Z " fill="#264163" transform="translate(90,133)"/>
<path d="M0 0 C0.33 0.99 0.66 1.98 1 3 C-1.17220355 5.73277221 -2.85827965 7.72888915 -6.3359375 8.5546875 C-8.56274452 8.78650022 -10.76217118 8.94637012 -13 9 C-13 8.67 -13 8.34 -13 8 C-11.948125 7.773125 -10.89625 7.54625 -9.8125 7.3125 C-5.83172145 6.19820499 -3.71771064 4.11737397 -1 1 C-0.67 0.67 -0.34 0.34 0 0 Z " fill="#02221B" transform="translate(131,113)"/>
<path d="M0 0 C2.0625 0.4375 2.0625 0.4375 4 1 C3.34 2.32 2.68 3.64 2 5 C0.68 5 -0.64 5 -2 5 C-1.125 1.125 -1.125 1.125 0 0 Z " fill="#7AC396" transform="translate(90,95)"/>
<path d="M0 0 C2 1.5625 2 1.5625 4 4 C4.25 7.75 4.25 7.75 4 11 C1.9656541 9.58480285 1.09589607 8.45017877 0.578125 6.01953125 C0.33726048 4.01823046 0.16467259 2.0090056 0 0 Z " fill="#5A7095" transform="translate(71,80)"/>
<path d="M0 0 C3.98175544 2.10148204 6.35039045 4.36905358 9 8 C5.41087588 8 4.89142971 7.33563446 2.3125 5 C1.68988281 4.443125 1.06726562 3.88625 0.42578125 3.3125 C-0.04472656 2.879375 -0.51523437 2.44625 -1 2 C-0.67 1.34 -0.34 0.68 0 0 Z " fill="#232435" transform="translate(57,61)"/>
<path d="M0 0 C0.309375 1.11375 0.61875 2.2275 0.9375 3.375 C1.82326483 6.7945155 1.82326483 6.7945155 3 9 C-0.36591866 7.55746343 -2.51047079 5.66735273 -5 3 C-1.125 0 -1.125 0 0 0 Z " fill="#387A5A" transform="translate(67,47)"/>
<path d="M0 0 C2.16874252 0.50603992 3.99967627 0.99983813 6 2 C6 4.31 6 6.62 6 9 C5.01 9.495 5.01 9.495 4 10 C3.566875 8.2984375 3.566875 8.2984375 3.125 6.5625 C2.75375 5.386875 2.3825 4.21125 2 3 C1.34 2.67 0.68 2.34 0 2 C0 1.34 0 0.68 0 0 Z " fill="#042712" transform="translate(63,40)"/>
<path d="M0 0 C2.97 0.33 5.94 0.66 9 1 C9 2.32 9 3.64 9 5 C7.02 4.34 5.04 3.68 3 3 C2.67 3.66 2.34 4.32 2 5 C2 4.34 2 3.68 2 3 C1.34 3 0.68 3 0 3 C0 2.01 0 1.02 0 0 Z " fill="#81D195" transform="translate(60,37)"/>
<path d="M0 0 C2.64 0 5.28 0 8 0 C8 0.99 8 1.98 8 3 C5.36 3 2.72 3 0 3 C0 2.01 0 1.02 0 0 Z " fill="#98B6D7" transform="translate(66,112)"/>
<path d="M0 0 C1.79068573 2.6860286 2.66055791 4.6626589 3.625 7.6875 C3.88539062 8.49574219 4.14578125 9.30398437 4.4140625 10.13671875 C4.60742188 10.75160156 4.80078125 11.36648437 5 12 C2.5 9.75 2.5 9.75 0 7 C0 5.68 0 4.36 0 3 C-0.99 2.67 -1.98 2.34 -3 2 C-2.01 2 -1.02 2 0 2 C0 1.34 0 0.68 0 0 Z " fill="#5CA47A" transform="translate(27,102)"/>
<path d="M0 0 C0.99 0.33 1.98 0.66 3 1 C4.20568053 5.67201205 4.09382426 10.21496292 4 15 C3.67 15 3.34 15 3 15 C2.81824219 13.98679687 2.81824219 13.98679687 2.6328125 12.953125 C2.46523438 12.06109375 2.29765625 11.1690625 2.125 10.25 C1.96257813 9.36828125 1.80015625 8.4865625 1.6328125 7.578125 C1.03203736 5.13052256 0.22002883 3.19400143 -1 1 C-0.67 0.67 -0.34 0.34 0 0 Z " fill="#021B17" transform="translate(42,100)"/>
<path d="M0 0 C-0.96371494 2.40928735 -1.65210163 3.76007009 -3.8125 5.25 C-6.32321365 6.11081611 -8.36348649 6.14647297 -11 6 C-9.66666667 5 -8.33333333 4 -7 3 C-6.319375 2.443125 -5.63875 1.88625 -4.9375 1.3125 C-3 0 -3 0 0 0 Z " fill="#05261B" transform="translate(123,88)"/>
<path d="M0 0 C0.99 0.33 1.98 0.66 3 1 C2.67 2.98 2.34 4.96 2 7 C1.01 7.33 0.02 7.66 -1 8 C-1.04241723 5.66705225 -1.04092937 3.33297433 -1 1 C-0.67 0.67 -0.34 0.34 0 0 Z " fill="#368952" transform="translate(120,74)"/>
<path d="M0 0 C-0.33 0.99 -0.66 1.98 -1 3 C-1 2.34 -1 1.68 -1 1 C-4.0745356 1.7763932 -4.0745356 1.7763932 -6 4 C-6.66 2.35 -7.32 0.7 -8 -1 C-4.37673261 -2.2077558 -3.35853631 -1.54311128 0 0 Z " fill="#74CE90" transform="translate(60,72)"/>
<path d="M0 0 C3.465 1.485 3.465 1.485 7 3 C4.4345406 5.5654594 2.52313332 5.54046087 -1 6 C-1.042721 4.33388095 -1.04063832 2.66617115 -1 1 C-0.67 0.67 -0.34 0.34 0 0 Z " fill="#6ED383" transform="translate(45,67)"/>
<path d="M0 0 C3.16115776 1.36983503 3.9927092 1.9890638 6 5 C2.88772805 5 0.05847848 4.54372951 -3 4 C-2.01 2.68 -1.02 1.36 0 0 Z " fill="#464E56" transform="translate(77,2)"/>
<path d="M0 0 C1.65 0.99 3.3 1.98 5 3 C4.67 4.32 4.34 5.64 4 7 C3.34 6.67 2.68 6.34 2 6 C2 5.34 2 4.68 2 4 C0.35 3.67 -1.3 3.34 -3 3 C-2.01 2.67 -1.02 2.34 0 2 C0 1.34 0 0.68 0 0 Z " fill="#3A434C" transform="translate(139,138)"/>
<path d="M0 0 C0.66 0.99 1.32 1.98 2 3 C-0.31 5.64 -2.62 8.28 -5 11 C-5.33 10.01 -5.66 9.02 -6 8 C-5.195625 7.236875 -4.39125 6.47375 -3.5625 5.6875 C-0.83200976 3.20569102 -0.83200976 3.20569102 0 0 Z " fill="#303741" transform="translate(132,127)"/>
<path d="M0 0 C0.66 0 1.32 0 2 0 C2 0.66 2 1.32 2 2 C2.66 2 3.32 2 4 2 C4.66 4.97 5.32 7.94 6 11 C3.05321567 8.05321567 1.67958081 5.75906182 0 2 C0 1.34 0 0.68 0 0 Z " fill="#6CBD90" transform="translate(25,71)"/>
<path d="M0 0 C0.33 0 0.66 0 1 0 C1.125 5.75 1.125 5.75 0 8 C-0.66 8 -1.32 8 -2 8 C-2.33 8.66 -2.66 9.32 -3 10 C-2.25 3.375 -2.25 3.375 0 0 Z " fill="#71B590" transform="translate(95,73)"/>
<path d="M0 0 C0.33 0.66 0.66 1.32 1 2 C1.66 2 2.32 2 3 2 C1.90931332 5.77545388 1.0916909 8.47043472 -2 11 C-1.125 3.375 -1.125 3.375 0 0 Z " fill="#333C48" transform="translate(11,60)"/>
<path d="M0 0 C0.99 0.33 1.98 0.66 3 1 C3.33 2.98 3.66 4.96 4 7 C2.68 7 1.36 7 0 7 C0 4.69 0 2.38 0 0 Z " fill="#417E64" transform="translate(81,106)"/>
<path d="M0 0 C1.32 1.65 2.64 3.3 4 5 C3.01 5.495 3.01 5.495 2 6 C1.67 5.34 1.34 4.68 1 4 C-0.32 4.33 -1.64 4.66 -3 5 C-3.33 4.01 -3.66 3.02 -4 2 C-2.68 1.34 -1.36 0.68 0 0 Z " fill="#FBFCFD" transform="translate(106,48)"/>
<path d="M0 0 C0.99 0.33 1.98 0.66 3 1 C4.1875 4.0625 4.1875 4.0625 5 7 C4.01 7 3.02 7 2 7 C0 5 0 5 -0.125 2.375 C-0.08375 1.59125 -0.0425 0.8075 0 0 Z " fill="#E1E8EA" transform="translate(100,42)"/>
<path d="M0 0 C1.32 0.66 2.64 1.32 4 2 C4 3.65 4 5.3 4 7 C3.01 7.33 2.02 7.66 1 8 C0.34 7.01 -0.32 6.02 -1 5 C-0.34 4.67 0.32 4.34 1 4 C0.34 3.01 -0.32 2.02 -1 1 C-0.67 0.67 -0.34 0.34 0 0 Z " fill="#03121F" transform="translate(71,32)"/>
<path d="M0 0 C0.66 0.33 1.32 0.66 2 1 C1.34 2.98 0.68 4.96 0 7 C-0.33 6.34 -0.66 5.68 -1 5 C-1.66 5 -2.32 5 -3 5 C-3 3.68 -3 2.36 -3 1 C-2.01 0.67 -1.02 0.34 0 0 Z " fill="#252E39" transform="translate(141,112)"/>
<path d="M0 0 C1.32 0 2.64 0 4 0 C5.125 4.75 5.125 4.75 4 7 C3.34 7 2.68 7 2 7 C1.814375 6.071875 1.814375 6.071875 1.625 5.125 C1.12802644 2.80879168 1.12802644 2.80879168 -1 1 C-0.67 0.67 -0.34 0.34 0 0 Z " fill="#5FB180" transform="translate(34,70)"/>
<path d="M0 0 C2.15377564 2.62198774 3.40072174 4.64404172 4 8 C3.01 8.33 2.02 8.66 1 9 C-1.125 3.375 -1.125 3.375 0 0 Z " fill="#2B333D" transform="translate(138,47)"/>
<path d="M0 0 C0.33 0 0.66 0 1 0 C1.33 3.3 1.66 6.6 2 10 C1.01 10 0.02 10 -1 10 C-2.46726798 6.18510326 -1.43336419 3.70988378 0 0 Z " fill="#092824" transform="translate(69,44)"/>
<path d="M0 0 C2.475 0.99 2.475 0.99 5 2 C5 3.65 5 5.3 5 7 C4.01 6.01 3.02 5.02 2 4 C1.34 4.66 0.68 5.32 0 6 C-0.38218767 4.34385343 -0.71395102 2.67542976 -1 1 C-0.67 0.67 -0.34 0.34 0 0 Z " fill="#66B983" transform="translate(70,42)"/>
<path d="M0 0 C1.33333333 0 2.66666667 0 4 0 C3.67 2.31 3.34 4.62 3 7 C2.34 7 1.68 7 1 7 C0.67 4.69 0.34 2.38 0 0 Z " fill="#051837" transform="translate(76,40)"/>
<path d="M0 0 C1.32 0.66 2.64 1.32 4 2 C2.25 3.5625 2.25 3.5625 0 5 C-2.25 4.6875 -2.25 4.6875 -4 4 C-2.68 2.68 -1.36 1.36 0 0 Z " fill="#305C4D" transform="translate(107,91)"/>
<path d="M0 0 C0.33 0.66 0.66 1.32 1 2 C1.66 2 2.32 2 3 2 C2.67 4.31 2.34 6.62 2 9 C1.34 8.67 0.68 8.34 0 8 C0 5.36 0 2.72 0 0 Z " fill="#538F71" transform="translate(91,81)"/>
<path d="M0 0 C4.43090471 1.20842856 6.98112756 2.51668565 10 6 C5.16743695 5.58578031 3.17320782 3.53586014 0 0 Z " fill="#165A32" transform="translate(29,62)"/>
<path d="M0 0 C0.33 0 0.66 0 1 0 C1 1.65 1 3.3 1 5 C1.99 5 2.98 5 4 5 C3.34 6.65 2.68 8.3 2 10 C1.34 10 0.68 10 0 10 C0 6.7 0 3.4 0 0 Z " fill="#5E9A7C" transform="translate(79,18)"/>
<path d="M0 0 C2.97 0 5.94 0 9 0 C9 0.33 9 0.66 9 1 C6.36 1 3.72 1 1 1 C1.33 2.32 1.66 3.64 2 5 C1.01 5 0.02 5 -1 5 C-0.67 3.35 -0.34 1.7 0 0 Z " fill="#1C2735" transform="translate(50,139)"/>
<path d="M0 0 C0.99 0.33 1.98 0.66 3 1 C2.34 2.98 1.68 4.96 1 7 C0.34 7 -0.32 7 -1 7 C-0.67 4.69 -0.34 2.38 0 0 Z " fill="#0F3618" transform="translate(117,103)"/>
<path d="M0 0 C1.65 1.65 3.3 3.3 5 5 C4.67 5.66 4.34 6.32 4 7 C3.01 7 2.02 7 1 7 C1 5.68 1 4.36 1 3 C0.34 2.67 -0.32 2.34 -1 2 C-0.67 1.34 -0.34 0.68 0 0 Z " fill="#0D2524" transform="translate(31,84)"/>
<path d="M0 0 C0.66 0 1.32 0 2 0 C2.33 2.64 2.66 5.28 3 8 C1.68 7.01 0.36 6.02 -1 5 C-0.67 3.35 -0.34 1.7 0 0 Z " fill="#2F3741" transform="translate(145,67)"/>
<path d="M0 0 C3.53600465 1.91135386 5.78972846 3.62642766 8 7 C7.46375 6.71125 6.9275 6.4225 6.375 6.125 C3.64719516 4.83288192 0.87387282 3.91441408 -2 3 C-1.34 2.67 -0.68 2.34 0 2 C0 1.34 0 0.68 0 0 Z " fill="#92CEA8" transform="translate(50,64)"/>
<path d="M0 0 C1.65 0 3.3 0 5 0 C4.67 1.32 4.34 2.64 4 4 C2.35 3.67 0.7 3.34 -1 3 C-0.67 2.01 -0.34 1.02 0 0 Z " fill="#FAFAF8" transform="translate(50,51)"/>
<path d="M0 0 C0 2.31 0 4.62 0 7 C-0.99 6.67 -1.98 6.34 -3 6 C-3.6875 3.9375 -3.6875 3.9375 -4 2 C-1 0 -1 0 0 0 Z " fill="#5F977E" transform="translate(77,21)"/>
<path d="M0 0 C0.33 0.66 0.66 1.32 1 2 C1.99 2 2.98 2 4 2 C3.67 3.65 3.34 5.3 3 7 C2.01 7 1.02 7 0 7 C0 4.69 0 2.38 0 0 Z " fill="#7BCD9E" transform="translate(73,16)"/>
<path d="M0 0 C0.66 0.33 1.32 0.66 2 1 C1.74438677 3.3431213 1.40729228 5.67843403 1 8 C0.01 8.495 0.01 8.495 -1 9 C-1.625 5.625 -1.625 5.625 -2 2 C-1.34 1.34 -0.68 0.68 0 0 Z " fill="#4CB67A" transform="translate(130,106)"/>
<path d="M0 0 C2.97 0 5.94 0 9 0 C9.33 0.66 9.66 1.32 10 2 C6.06329512 3.31223496 3.87511856 2.24296256 0 1 C0 0.67 0 0.34 0 0 Z " fill="#8CCFA1" transform="translate(121,98)"/>
<path d="M0 0 C0.66 0 1.32 0 2 0 C2 0.66 2 1.32 2 2 C2.99 2 3.98 2 5 2 C5.33 3.32 5.66 4.64 6 6 C5.01 6 4.02 6 3 6 C2.01 4.02 1.02 2.04 0 0 Z " fill="#509D75" transform="translate(46,80)"/>
<path d="M0 0 C0.66 0.33 1.32 0.66 2 1 C0.02 3.97 0.02 3.97 -2 7 C-2.66 6.01 -3.32 5.02 -4 4 C-2.68 2.68 -1.36 1.36 0 0 Z " fill="#135731" transform="translate(118,67)"/>
<path d="M0 0 C1.32 0.66 2.64 1.32 4 2 C3.01 3.485 3.01 3.485 2 5 C1.67 4.67 1.34 4.34 1 4 C0.34 4.99 -0.32 5.98 -1 7 C-1.33 5.35 -1.66 3.7 -2 2 C-1.34 2 -0.68 2 0 2 C0 1.34 0 0.68 0 0 Z " fill="#161B2F" transform="translate(65,69)"/>
<path d="M0 0 C2.31 0 4.62 0 7 0 C7 1.32 7 2.64 7 4 C5.68 4.33 4.36 4.66 3 5 C3 4.01 3 3.02 3 2 C2.01 1.34 1.02 0.68 0 0 Z " fill="#82CE96" transform="translate(124,57)"/>
<path d="M0 0 C0.66 0.33 1.32 0.66 2 1 C1.67 2.65 1.34 4.3 1 6 C0.01 6 -0.98 6 -2 6 C-2 5.01 -2 4.02 -2 3 C-1.34 2.67 -0.68 2.34 0 2 C0 1.34 0 0.68 0 0 Z " fill="#E6E3EA" transform="translate(55,51)"/>
<path d="M0 0 C0.33 0.99 0.66 1.98 1 3 C1.66 3 2.32 3 3 3 C2.42655063 5.86724686 2.1385485 6.8614515 0 9 C-1.10844919 5.67465243 -0.84454356 3.37817425 0 0 Z " fill="#091F21" transform="translate(97,39)"/>
<path d="M0 0 C1.98 0.495 1.98 0.495 4 1 C3.67 2.32 3.34 3.64 3 5 C1.68 4.67 0.36 4.34 -1 4 C-0.67 2.68 -0.34 1.36 0 0 Z " fill="#343A43" transform="translate(140,152)"/>
<path d="M0 0 C0.99 0.99 1.98 1.98 3 3 C1.68 3.99 0.36 4.98 -1 6 C-1.66 5.67 -2.32 5.34 -3 5 C-1.125 1.125 -1.125 1.125 0 0 Z " fill="#387452" transform="translate(123,112)"/>
<path d="M0 0 C1.65 0.33 3.3 0.66 5 1 C4.67 1.99 4.34 2.98 4 4 C1.525 3.01 1.525 3.01 -1 2 C-0.67 1.34 -0.34 0.68 0 0 Z " fill="#275A46" transform="translate(58,93)"/>
<path d="M0 0 C1.65 0.99 3.3 1.98 5 3 C4.67 3.99 4.34 4.98 4 6 C2.68 5.67 1.36 5.34 0 5 C0 3.35 0 1.7 0 0 Z " fill="#0C241F" transform="translate(110,78)"/>
<path d="M0 0 C1.98 0 3.96 0 6 0 C5.67 0.99 5.34 1.98 5 3 C5.33 3.66 5.66 4.32 6 5 C3.5625 4.1875 3.5625 4.1875 1 3 C0.67 2.01 0.34 1.02 0 0 Z " fill="#8EDDAA" transform="translate(32,61)"/>
<path d="M0 0 C0.66 0.33 1.32 0.66 2 1 C2 2.65 2 4.3 2 6 C1.67 5.34 1.34 4.68 1 4 C0.01 4.33 -0.98 4.66 -2 5 C-2.66 4.67 -3.32 4.34 -4 4 C-3.67 3.34 -3.34 2.68 -3 2 C-2.34 2.33 -1.68 2.66 -1 3 C-0.67 2.01 -0.34 1.02 0 0 Z " fill="#212633" transform="translate(51,55)"/>
<path d="M0 0 C0.433125 0.474375 0.86625 0.94875 1.3125 1.4375 C3.02309613 3.23686957 3.02309613 3.23686957 6 4 C6 4.66 6 5.32 6 6 C1.545 5.01 1.545 5.01 -3 4 C-2.01 3.67 -1.02 3.34 0 3 C0 2.01 0 1.02 0 0 Z " fill="#15282A" transform="translate(38,55)"/>
<path d="M0 0 C2.475 0.495 2.475 0.495 5 1 C5.33 2.32 5.66 3.64 6 5 C5.01 5.495 5.01 5.495 4 6 C4 5.01 4 4.02 4 3 C3.01 3.33 2.02 3.66 1 4 C0.67 2.68 0.34 1.36 0 0 Z " fill="#48986A" transform="translate(89,44)"/>
<path d="M0 0 C1.32 0 2.64 0 4 0 C3.67 1.65 3.34 3.3 3 5 C2.01 4.67 1.02 4.34 0 4 C0 2.68 0 1.36 0 0 Z " fill="#687597" transform="translate(76,34)"/>
<path d="M0 0 C2.475 0.495 2.475 0.495 5 1 C4.34 2.65 3.68 4.3 3 6 C2.34 5.67 1.68 5.34 1 5 C0.375 2.4375 0.375 2.4375 0 0 Z " fill="#232D3A" transform="translate(104,18)"/>
<path d="M0 0 C0.66 0.33 1.32 0.66 2 1 C1.01 1 0.02 1 -1 1 C-0.67 0.67 -0.34 0.34 0 0 Z " fill="#FFFFFF" transform="translate(1,7)"/>
<path d="" fill="#FFFFFF" transform="translate(0,0)"/>
</svg>
