<svg width="611" height="952" viewBox="0 0 611 952" fill="none" xmlns="http://www.w3.org/2000/svg">
<path opacity="0.2" d="M192.7 578.592C192.7 627.592 221.4 650.792 256.7 630.392C292.1 609.992 320.7 553.692 320.7 504.692C320.7 455.692 292 432.492 256.7 452.892C221.3 473.292 192.6 529.592 192.7 578.592Z" fill="url(#paint0_linear_291_5499)"/>
<path opacity="0.4" d="M287.4 650.392C252 670.792 223.4 647.592 223.3 598.592C223.3 549.592 252 493.292 287.3 472.892C322.7 452.492 351.3 475.692 351.3 524.692C351.4 573.692 322.7 629.992 287.4 650.392ZM298.4 510.292L286.1 517.392V529.292C284.9 530.092 283.7 530.892 282.5 531.692C279.4 533.792 276.5 535.992 273.8 538.192V615.392C277.2 614.492 280.4 613.192 283.5 611.592C284.4 611.192 285.2 610.792 286.1 610.292V622.192L298.4 615.092V603.092C304.4 598.892 309.1 594.192 312.5 588.992C316.9 582.192 319.1 574.692 319.1 566.292C319.1 562.192 318.4 558.792 317.1 556.292C315.8 553.792 313.3 552.592 309.7 552.792C314.1 546.592 316.3 540.292 316.3 533.892C316.3 529.692 315.7 526.492 314.4 524.392C313.2 522.192 311.5 520.792 309.3 520.392C307.1 519.992 304.4 520.192 301.4 521.292C300.5 521.592 299.5 521.992 298.5 522.392L298.4 510.292Z" fill="white"/>
<path opacity="0.4" d="M293.2 557.691L286.9 561.291V543.991C287.9 543.291 289 542.491 290.3 541.791C291.6 540.991 292.8 540.291 293.9 539.591C297.3 537.591 299.9 536.791 301.7 537.091C303.5 537.391 304.3 539.091 304.3 542.291C304.3 545.391 303.4 548.191 301.7 550.691C300 553.091 297.2 555.391 293.2 557.691Z" fill="white"/>
<path opacity="0.4" d="M286.9 595.392V574.792L295 570.092C298.7 567.992 301.5 567.092 303.5 567.592C305.5 567.992 306.5 569.992 306.5 573.692C306.5 577.792 305.3 581.392 302.9 584.292C300.5 587.192 297.4 589.792 293.5 591.992C292.2 592.792 291 593.392 289.9 593.992C288.9 594.492 287.9 594.992 286.9 595.392Z" fill="white"/>
<path opacity="0.3" d="M374.4 1.59214C368.1 5.19214 363.1 13.9921 363.1 21.1921V214.392L305.8 247.492V446.792C305.8 453.992 310.9 456.892 317.1 453.292C323.4 449.692 328.4 440.892 328.4 433.692V260.492L385.7 227.392V7.99214C385.8 0.892136 380.7 -2.10786 374.4 1.59214Z" fill="url(#paint1_linear_291_5499)"/>
<path opacity="0.3" d="M343.2 840.792C336.9 844.392 331.9 841.492 331.9 834.292V689.492L274.5 722.592V627.792C274.5 620.592 279.6 611.792 285.8 608.192C292.1 604.592 297.1 607.492 297.1 614.692V683.392L354.4 650.292V821.192C354.5 828.392 349.4 837.192 343.2 840.792Z" fill="url(#paint2_linear_291_5499)"/>
<path opacity="0.3" d="M255.1 143.292C248.8 146.892 243.8 155.692 243.8 162.892V491.592C243.8 498.792 248.9 501.692 255.1 498.092C261.4 494.492 266.4 485.692 266.4 478.492V149.792C266.4 142.592 261.3 139.692 255.1 143.292Z" fill="url(#paint3_linear_291_5499)"/>
<path d="M319.3 824.192C319.3 843.992 330.9 853.392 345.2 845.092C359.5 836.892 371.1 814.092 371.1 794.292C371.1 774.492 359.5 765.092 345.2 773.392C330.9 781.692 319.3 804.392 319.3 824.192Z" fill="#F2C94C"/>
<path opacity="0.3" d="M129 308.192C135.3 304.592 140.3 307.492 140.3 314.692V412.292L197.6 379.192V499.092C197.6 506.292 192.5 515.092 186.3 518.692C180 522.292 175 519.392 175 512.192V418.392L117.7 451.492V327.792C117.7 320.592 122.7 311.792 129 308.192Z" fill="url(#paint4_linear_291_5499)"/>
<path d="M103.6 342.592C103.6 362.192 115.1 371.392 129.2 363.292C143.3 355.092 154.8 332.692 154.8 313.092C154.8 293.492 143.3 284.292 129.2 292.392C115.1 300.492 103.6 323.092 103.6 342.592Z" fill="#F2994A"/>
<path opacity="0.3" d="M19.2998 841.792C19.2998 834.592 24.3998 825.792 30.5998 822.192L119.6 770.792V696.292L208 645.292C214.3 641.692 219.3 644.592 219.3 651.792C219.3 658.992 214.2 667.792 208 671.392L142.2 709.392V783.892L30.6998 848.392C24.3998 851.992 19.2998 848.992 19.2998 841.792Z" fill="url(#paint5_linear_291_5499)"/>
<path opacity="0.3" d="M234.2 950.292C240.5 946.692 245.5 937.892 245.5 930.692V693.692C245.5 686.492 240.4 683.592 234.2 687.192C227.9 690.792 222.9 699.592 222.9 706.792V943.792C222.9 950.892 228 953.892 234.2 950.292Z" fill="url(#paint6_linear_291_5499)"/>
<path d="M5.6001 850.392C5.6001 870.192 17.2001 879.592 31.5001 871.292C45.8001 863.092 57.4001 840.292 57.4001 820.492C57.4001 800.692 45.8001 791.292 31.5001 799.592C17.2001 807.892 5.6001 830.592 5.6001 850.392Z" fill="#F2994A"/>
<path opacity="0.3" d="M559.5 452.691L396.7 546.691V848.291L559.5 754.291V452.691Z" fill="url(#paint7_linear_291_5499)"/>
<path opacity="0.15" d="M533.7 644.392L436.7 700.392V712.292L533.7 656.292V644.392Z" fill="white"/>
<path opacity="0.15" d="M523.6 673.792L446.7 718.192V730.092L523.6 685.692V673.792Z" fill="white"/>
<path d="M497.3 727.392L610.6 661.992V695.692L497.3 761.092V727.392Z" fill="#F2C94C"/>
<path opacity="0.2" d="M442.8 576.792L468.1 596.792L485.1 574.992L507.3 594.192L516.1 587.792L483.4 560.292L466.8 582.092L448.5 568.492L442.8 576.792Z" fill="white"/>
<path d="M423.8 576.291C423.8 587.591 430.4 592.891 438.5 588.191C446.6 583.491 453.2 570.591 453.2 559.291C453.2 547.991 446.6 542.691 438.5 547.391C430.4 552.091 423.8 564.991 423.8 576.291Z" fill="#F2C94C"/>
<path d="M499.6 598.092C499.6 609.392 506.2 614.692 514.3 609.992C522.4 605.292 529 592.392 529 581.092C529 569.792 522.4 564.492 514.3 569.192C506.2 573.892 499.6 586.792 499.6 598.092Z" fill="#F2C94C"/>
<path opacity="0.2" d="M0 649.892L154.8 560.492V641.092L0 730.492V649.892Z" fill="url(#paint8_linear_291_5499)"/>
<path opacity="0.15" d="M115.2 602.792L68.6001 629.692V639.392L115.2 612.492V602.792Z" fill="white"/>
<path opacity="0.15" d="M115.1 622.292L15.8999 679.492V689.292L115.1 632.092V622.292Z" fill="white"/>
<path d="M123.3 605.692C123.3 612.292 127.2 615.492 132.1 612.692C137 609.892 140.9 602.192 140.9 595.592C140.9 588.992 137 585.792 132.1 588.592C127.2 591.392 123.3 599.092 123.3 605.692Z" fill="#F2994A"/>
<path opacity="0.2" d="M397.2 403.392L552 313.992V394.592L397.2 483.992V403.392Z" fill="url(#paint9_linear_291_5499)"/>
<path opacity="0.15" d="M512.4 356.292L465.8 383.192V392.892L512.4 365.992V356.292Z" fill="white"/>
<path opacity="0.15" d="M512.3 375.792L413.1 432.992V442.792L512.3 385.592V375.792Z" fill="white"/>
<path d="M520.5 359.192C520.5 365.792 524.4 368.992 529.3 366.192C534.2 363.392 538.1 355.692 538.1 349.092C538.1 342.492 534.2 339.292 529.3 342.092C524.5 344.892 520.5 352.492 520.5 359.192Z" fill="#F2994A"/>
<defs>
<linearGradient id="paint0_linear_291_5499" x1="243.84" y1="468.382" x2="272.785" y2="633.212" gradientUnits="userSpaceOnUse">
<stop stop-color="white"/>
<stop offset="1" stop-color="white" stop-opacity="0"/>
</linearGradient>
<linearGradient id="paint1_linear_291_5499" x1="260.821" y1="80.1969" x2="424.91" y2="364.481" gradientUnits="userSpaceOnUse">
<stop stop-color="white"/>
<stop offset="1" stop-color="white" stop-opacity="0"/>
</linearGradient>
<linearGradient id="paint2_linear_291_5499" x1="379.495" y1="806.733" x2="275.769" y2="627.028" gradientUnits="userSpaceOnUse">
<stop stop-color="white"/>
<stop offset="1" stop-color="white" stop-opacity="0"/>
</linearGradient>
<linearGradient id="paint3_linear_291_5499" x1="183.947" y1="197.449" x2="326.273" y2="444.032" gradientUnits="userSpaceOnUse">
<stop stop-color="white"/>
<stop offset="1" stop-color="white" stop-opacity="0"/>
</linearGradient>
<linearGradient id="paint4_linear_291_5499" x1="68.3281" y1="260.585" x2="203.909" y2="495.478" gradientUnits="userSpaceOnUse">
<stop stop-color="white"/>
<stop offset="1" stop-color="white" stop-opacity="0"/>
</linearGradient>
<linearGradient id="paint5_linear_291_5499" x1="-17.9092" y1="746.845" x2="208.103" y2="746.82" gradientUnits="userSpaceOnUse">
<stop stop-color="white"/>
<stop offset="1" stop-color="white" stop-opacity="0"/>
</linearGradient>
<linearGradient id="paint6_linear_291_5499" x1="285.563" y1="907.51" x2="182.772" y2="729.673" gradientUnits="userSpaceOnUse">
<stop stop-color="white"/>
<stop offset="1" stop-color="white" stop-opacity="0"/>
</linearGradient>
<linearGradient id="paint7_linear_291_5499" x1="379.297" y1="479.201" x2="523.826" y2="729.596" gradientUnits="userSpaceOnUse">
<stop stop-color="white"/>
<stop offset="1" stop-color="white" stop-opacity="0"/>
</linearGradient>
<linearGradient id="paint8_linear_291_5499" x1="59.9018" y1="615.273" x2="94.8194" y2="675.769" gradientUnits="userSpaceOnUse">
<stop stop-color="white"/>
<stop offset="1" stop-color="white" stop-opacity="0"/>
</linearGradient>
<linearGradient id="paint9_linear_291_5499" x1="457.136" y1="368.745" x2="492.054" y2="429.24" gradientUnits="userSpaceOnUse">
<stop stop-color="white"/>
<stop offset="1" stop-color="white" stop-opacity="0"/>
</linearGradient>
</defs>
</svg>
