<svg width="1079" height="1018" viewBox="0 0 1079 1018" fill="none" xmlns="http://www.w3.org/2000/svg">
<path opacity="0.3" d="M959.8 533.6C1057.4 448.8 1071.1 529.5 1077.7 530.8C1077.7 530.8 1080.6 550.3 1077.7 621.4L126.3 1170.5V784.1C234.4 590.4 306 455.1 376.5 517.5C498.5 625.6 557.9 698.2 703 548.2C788.9 459.4 842.6 635.4 959.8 533.6Z" fill="url(#paint0_linear_291_5484)"/>
<path opacity="0.3" d="M834.1 601.8C931.7 517 945.4 597.7 952 599C952 599 954.9 618.5 952 689.6L0.599609 1238.7V852.3C154.6 628.7 256.1 670.3 344.1 702.6C430.3 734.2 461.9 668.2 571 574.1C660.8 496.6 716.9 703.5 834.1 601.8Z" fill="url(#paint1_linear_291_5484)"/>
<path d="M312.5 512.6C312.5 504.6 317.2 495.5 322.9 492.2C328.6 488.9 333.3 492.6 333.3 500.6C333.3 508.6 328.6 517.7 322.9 521C317.1 524.3 312.5 520.6 312.5 512.6Z" fill="#F2994A"/>
<path d="M588.3 566.4C588.3 558.7 593.1 549.7 599.1 546.3C605.1 542.9 609.9 546.3 609.9 554C609.9 561.7 605.1 570.7 599.1 574.1C593.2 577.5 588.3 574.1 588.3 566.4Z" fill="#F2C94C"/>
<path opacity="0.07" d="M379 0.799805L194.4 107.4V470.2L379 363.7V0.799805Z" fill="white"/>
<path opacity="0.3" d="M415 32L230.4 138.6V501.4L310.2 455.4L322.7 465.6L335.2 440.9L415 394.9V32Z" fill="url(#paint2_linear_291_5484)"/>
<path opacity="0.1" d="M254.6 251.7C254.6 263.3 256.3 273.9 259.5 282.8C262.7 291.7 267.4 298.7 273.3 303.5C279.2 308.3 286.3 310.7 294 310.7C301.7 310.7 310.1 308.2 318.4 303.3V214.8L254.6 251.7Z" fill="white"/>
<path opacity="0.3" d="M318.5 303.3C329.7 296.8 340.7 286.4 350.4 273C360.1 259.6 368.2 243.8 373.8 227.1C379.4 210.4 382.4 193.4 382.4 177.9C382.4 162.4 379.4 148.8 373.8 138.6L318.5 214.8V303.3Z" fill="white"/>
<path d="M254.6 251.7C254.6 232.2 259.2 210.6 267.8 190.2C276.4 169.8 288.4 151.8 301.9 138.9C315.5 126 329.9 119 342.9 119C355.9 119 366.7 125.9 373.8 138.7L318.5 214.9L254.6 251.7Z" fill="#F2994A"/>
<path opacity="0.15" d="M390.9 307.2L278.4 372.1V385.7L390.9 320.8V307.2Z" fill="white"/>
<path opacity="0.15" d="M390.9 333.8L254.5 412.5V426.1L391 347.4L390.9 333.8Z" fill="white"/>
<path opacity="0.15" d="M391 360.3L302.6 411.3V424.9L391 373.9V360.3Z" fill="white"/>
<path opacity="0.07" d="M655.9 55L471.3 161.6V524.4L655.9 417.9V55Z" fill="white"/>
<path opacity="0.3" d="M691.5 86.5L506.9 193V555.8L586.6 509.9L599.1 520.1L611.7 495.4L691.5 449.3V86.5Z" fill="url(#paint3_linear_291_5484)"/>
<path opacity="0.1" d="M531 306.1C531 321.6 534 335.2 539.6 345.4C545.2 355.6 553.3 362.1 563 364.3L594.9 269.2L531 306.1Z" fill="white"/>
<path opacity="0.3" d="M562.9 364.3C575.1 367 589.2 362.7 603.2 352.2C617.1 341.6 630.1 325.3 640 305.8L594.8 269.3L562.9 364.3Z" fill="white"/>
<path d="M531 306.1C531 291.5 533.6 275.7 538.5 260C543.4 244.3 550.6 229.2 559.3 216.1C568 203 578.1 192.2 588.5 184.7C599 177.2 609.5 173.3 619.2 173.3C628.9 173.3 637.5 177.1 644.1 184.5C650.8 191.9 655.3 202.6 657.4 215.7C659.5 228.8 658.9 243.8 655.9 259.5C652.9 275.2 647.4 291 639.9 305.6L594.7 269.1L531 306.1Z" fill="#F2C94C"/>
<path opacity="0.15" d="M667.4 361.6L539.7 435.3V448.9L667.4 375.2V361.6Z" fill="white"/>
<path opacity="0.15" d="M667.4 388.2L534.8 464.8V478.4L667.4 401.8V388.2Z" fill="white"/>
<path opacity="0.15" d="M667.4 414.8L579 465.8V479.4L667.4 428.4V414.8Z" fill="white"/>
<defs>
<linearGradient id="paint0_linear_291_5484" x1="428.829" y1="300.428" x2="549.985" y2="685.383" gradientUnits="userSpaceOnUse">
<stop stop-color="white"/>
<stop offset="1" stop-color="white" stop-opacity="0"/>
</linearGradient>
<linearGradient id="paint1_linear_291_5484" x1="376.293" y1="466.165" x2="445.105" y2="777.645" gradientUnits="userSpaceOnUse">
<stop stop-color="white"/>
<stop offset="1" stop-color="white" stop-opacity="0"/>
</linearGradient>
<linearGradient id="paint2_linear_291_5484" x1="322.7" y1="82.7877" x2="322.7" y2="571.374" gradientUnits="userSpaceOnUse">
<stop stop-color="white" stop-opacity="0"/>
<stop offset="1" stop-color="white"/>
</linearGradient>
<linearGradient id="paint3_linear_291_5484" x1="599.2" y1="142.274" x2="599.2" y2="604.921" gradientUnits="userSpaceOnUse">
<stop stop-color="white" stop-opacity="0"/>
<stop offset="1" stop-color="white"/>
</linearGradient>
</defs>
</svg>
