<svg xmlns="http://www.w3.org/2000/svg" viewBox="0 0 64 63.43">
  <title>chart</title>
  <g id="Layer_2" data-name="Layer 2">
    <g id="chart">
      <path fill="#FFFFFF" d="M63,7.5a1,1,0,0,0,1-1V1a1,1,0,0,0-1-1H1A1,1,0,0,0,0,1V6.5a1,1,0,0,0,1,1H4.73V42.89H1a1,1,0,0,0-1,1v5.17a1,1,0,0,0,1,1H31v4.87a4.37,4.37,0,1,0,2,0V50.06H63a1,1,0,0,0,1-1V43.89a1,1,0,0,0-1-1H59.27V7.5ZM34.32,59.11a2.31,2.31,0,1,1-.72-1.68A2.32,2.32,0,0,1,34.32,59.11ZM2,2H62V5.5H2ZM62,48.06H2V44.89H62Zm-4.73-5.17H6.73V7.5H57.27Z"/>
      <path fill="#FFFFFF" d="M16.41,34.93a4.32,4.32,0,0,0,4.32-4.32A4.28,4.28,0,0,0,20,28.23l4.61-5.12a4.23,4.23,0,0,0,5.08.49l3.38,3.75a4.28,4.28,0,0,0-.68,2.3,4.32,4.32,0,0,0,8.64,0,4.27,4.27,0,0,0-.63-2.21l6.29-6.92a4.27,4.27,0,0,0,2.21.63,4.32,4.32,0,1,0-4.32-4.32,4.28,4.28,0,0,0,.67,2.29L39,26a4.25,4.25,0,0,0-4.51,0l-3.38-3.75a4.31,4.31,0,0,0-3.64-6.61,4.32,4.32,0,0,0-4.32,4.32,4.27,4.27,0,0,0,.28,1.5l-4.91,5.45a4.31,4.31,0,1,0-2.14,8.06ZM48.92,14.5a2.32,2.32,0,1,1-2.32,2.32A2.31,2.31,0,0,1,48.92,14.5ZM38.32,28a2.32,2.32,0,1,1-1.6-.63A2.31,2.31,0,0,1,38.32,28ZM27.5,17.59a2.32,2.32,0,1,1-2.32,2.32A2.32,2.32,0,0,1,27.5,17.59ZM16.41,28.29a2.32,2.32,0,1,1-2.32,2.32A2.31,2.31,0,0,1,16.41,28.29Z"/>
    </g>
  </g>
</svg>