<svg xmlns="http://www.w3.org/2000/svg" viewBox="0 0 54 64">
  <defs>
    <style>.cls-1{fill-rule:evenodd;stroke:#fff;}</style>
  </defs>
  <title>report</title>
  <g id="Layer_2" data-name="Layer 2">
    <g id="report"><path class="cls-1" fill="#FFF" d="M53,5.2H46.42V1a1,1,0,0,0-1-1H15a1,1,0,0,0-.37.07l-.13.08a1,1,0,0,0-.16.1L.34,12.6l0,0a1,1,0,0,0-.18.24A1,1,0,0,0,.09,13a1,1,0,0,0-.09.4H0V56a1,1,0,0,0,1,1H6.09v6a1,1,0,0,0,1,1H53a1,1,0,0,0,1-1V6.2A1,1,0,0,0,53,5.2Zm-39-2v9.15H3.64ZM2,55V14.35l13,0h0a1,1,0,0,0,1-1V2H44.42V55H2Zm50,7H8.09V57H45.42a1,1,0,0,0,1-1V7.2H52Z"/><path class="cls-1" d="M22.07,36H11.35a1,1,0,0,0,0,2H22.07a1,1,0,0,0,0-2Z"/><path class="cls-1" d="M22.07,43.6H11.35a1,1,0,0,0,0,2H22.07a1,1,0,0,0,0-2Z"/><path class="cls-1" d="M36.89,20.3H11.35a1,1,0,0,0,0,2H36.89a1,1,0,0,0,0-2Z"/><path class="cls-1" d="M36.89,28H11.35a1,1,0,0,0,0,2H36.89a1,1,0,0,0,0-2Z"/><path class="cls-1" d="M33.44,39.5c-.35-.1-.72-.15-1.08-.23s-1.19-.3-1.44-.77a.87.87,0,0,1-.09-.39,1.06,1.06,0,0,1,.37-.87,1.72,1.72,0,0,1,1.44-.14,2.79,2.79,0,0,1,1.07.52,1,1,0,0,0,1.26.16,1,1,0,0,0,.41-.8,1.47,1.47,0,0,0-.53-1.09h0a3.67,3.67,0,0,0-1.47-.77L33,35V33.77a.78.78,0,0,0-.29-.65c-.5-.39-1.62-.24-1.62.55V35l-.33.1a2.64,2.64,0,0,0-1.62,1.39,3.58,3.58,0,0,0-.42,2.34,2.14,2.14,0,0,0,.94,1.56,4.84,4.84,0,0,0,1.57.61,5.17,5.17,0,0,1,1.15.4,2.81,2.81,0,0,1,.52.35A1.23,1.23,0,0,1,33.42,43a1.38,1.38,0,0,1-1.19.86,2.07,2.07,0,0,1-1.78-.77h0a1.52,1.52,0,0,0-.85-.62,1,1,0,0,0-.75.14,1.06,1.06,0,0,0-.45.7,1.29,1.29,0,0,0,.27,1,3.89,3.89,0,0,0,2.13,1.46l.34.09V46.9a.87.87,0,0,0,.42.8,1,1,0,0,0,1.5-.76V45.8l.33-.1A3.69,3.69,0,0,0,35,44.58a2.83,2.83,0,0,0,.73-2.42A3.07,3.07,0,0,0,33.44,39.5Z"/></g></g></svg>