<svg xmlns="http://www.w3.org/2000/svg" width="32" height="32" viewBox="0 0 24 24" fill="none">
  <path d="M12 15.5a3.5 3.5 0 1 0 0-7 3.5 3.5 0 0 0 0 7Z" stroke="#FFFFFF" stroke-width="2" fill="none"/>
  <path d="M19.4 15a8.6 8.6 0 0 0 .1-1 8.6 8.6 0 0 0-.1-1l2-1.6-2-3.4-2.4 1a8.5 8.5 0 0 0-1.7-1L15 2h-6l-.3 3a8.5 8.5 0 0 0-1.7 1l-2.4-1-2 3.4 2 1.6a8.6 8.6 0 0 0-.1 1 8.6 8.6 0 0 0 .1 1l-2 1.6 2 3.4 2.4-1a8.5 8.5 0 0 0 1.7 1l.3 3h6l.3-3a8.5 8.5 0 0 0 1.7-1l2.4 1 2-3.4-2-1.6Z" stroke="#FFFFFF" stroke-width="2" fill="none" stroke-linejoin="round"/>
</svg>
